<?xml version="1.0" encoding="UTF-8" standalone="no"?>
<!-- Generator: Adobe Illustrator 15.1.0, SVG Export Plug-In . SVG Version: 6.00 Build 0)  -->

<svg
   xmlns:dc="http://purl.org/dc/elements/1.1/"
   xmlns:cc="http://creativecommons.org/ns#"
   xmlns:rdf="http://www.w3.org/1999/02/22-rdf-syntax-ns#"
   xmlns:svg="http://www.w3.org/2000/svg"
   xmlns="http://www.w3.org/2000/svg"
   xmlns:xlink="http://www.w3.org/1999/xlink"
   xmlns:sodipodi="http://sodipodi.sourceforge.net/DTD/sodipodi-0.dtd"
   xmlns:inkscape="http://www.inkscape.org/namespaces/inkscape"
   version="1.1"
   x="0px"
   y="0px"
   width="320"
   height="426"
   viewBox="-0.042 0 320 426"
   enable-background="new -0.042 0 278 286"
   xml:space="preserve"
   id="svg2"
   inkscape:version="0.91 r13725"
   sodipodi:docname="large_cats.svg"
   inkscape:export-filename="C:\Users\Travis\Documents\Systems\Ivy's Pooping Cats\assets\images\spash-1.png"
   inkscape:export-xdpi="90"
   inkscape:export-ydpi="90"><metadata
     id="metadata21"><rdf:RDF><cc:Work
         rdf:about=""><dc:format>image/svg+xml</dc:format><dc:type
           rdf:resource="http://purl.org/dc/dcmitype/StillImage" /><dc:title></dc:title></cc:Work></rdf:RDF></metadata><defs
     id="defs19"><linearGradient
       id="SVGID_1_"
       gradientUnits="userSpaceOnUse"
       x1="22.3076"
       y1="4.3369002"
       x2="34.848598"
       y2="63.681099"><stop
         offset="0"
         style="stop-color:#B56638"
         id="stop6" /><stop
         offset="0.2951"
         style="stop-color:#B26437"
         id="stop8" /><stop
         offset="0.4776"
         style="stop-color:#AA5D32"
         id="stop10" /><stop
         offset="0.6295"
         style="stop-color:#9B512A"
         id="stop12" /><stop
         offset="0.7647"
         style="stop-color:#87411F"
         id="stop14" /><stop
         offset="0.8875"
         style="stop-color:#6D2B11"
         id="stop16" /><stop
         offset="1"
         style="stop-color:#4D1200"
         id="stop18" /></linearGradient><clipPath
       id="SVGID_3_"><use
         height="100%"
         width="100%"
         y="0"
         x="0"
         xlink:href="#SVGID_2_"
         style="overflow:visible"
         id="use54" /></clipPath></defs><sodipodi:namedview
     pagecolor="#ffffff"
     bordercolor="#666666"
     borderopacity="1"
     objecttolerance="10"
     gridtolerance="10"
     guidetolerance="10"
     inkscape:pageopacity="0"
     inkscape:pageshadow="2"
     inkscape:window-width="1920"
     inkscape:window-height="1017"
     id="namedview17"
     showgrid="false"
     inkscape:zoom="0.82517483"
     inkscape:cx="139"
     inkscape:cy="143"
     inkscape:window-x="-8"
     inkscape:window-y="-8"
     inkscape:window-maximized="1"
     inkscape:current-layer="svg2" /><g
     id="Layer_1"
     transform="matrix(1.1787282,0,0,1.5169491,-2.8399548,-4.9999997)"><rect
       x="-0.041999999"
       width="278"
       height="286"
       id="rect9"
       y="0"
       style="clip-rule:evenodd;fill:#dcddde;fill-rule:evenodd" /><path
       d="m 51.101,35.957 c 6.188,5.852 -5.095,20.88 -6.072,40.224 -0.92,18.163 8.113,40.669 23.513,46.584 32.333,-7 71.676,-2.478 105.379,-0.572 3.219,15.267 8.956,21.533 21.056,30.961 -13.165,22.276 -20.468,59.22 -13.081,78.131 -21.83,0.53 -14.43,-34.826 -21.798,-52.089 -24.165,2.122 -49.438,-3.635 -67.763,4.284 -8.007,3.468 -14.866,14.853 -19.432,21.751 -4.245,6.413 3.338,11.76 7.26,15.236 5.762,5.108 4.307,9.525 -3.938,9.43 -22.457,-0.26 -16.193,-31.058 -15.434,-45.195 0.615,-11.451 1.857,-24.621 -0.969,-35.886 -7.907,-31.52 -28.762,-46.62 -26.16,-73.793 1.489,-15.524 9.65,-28.214 17.439,-39.066 z"
       id="path11"
       inkscape:connector-curvature="0"
       style="clip-rule:evenodd;fill:#505050;fill-rule:evenodd" /><path
       d="m 206.842,83.366 c 3.806,3.405 -2.26,18.46 3.787,18.834 7.633,0.478 10.636,8.334 12.771,17.434 4.832,4.36 4.592,8.838 3.287,13.239 -0.699,2.352 -4.287,3.199 -5.773,3.37 -8.658,1.005 -15.907,2.829 -21.518,7.352 -8.251,-0.478 -14.521,-11.222 -19.181,-22.303 2.378,-0.694 1.29,-2.171 1.505,-3.383 2.79,-15.574 19.495,-22.696 25.122,-34.543 z"
       id="path13"
       inkscape:connector-curvature="0"
       style="clip-rule:evenodd;fill:#505050;fill-rule:evenodd" /><path
       stroke-miterlimit="10"
       d="m 177.517,188.183 -10.689,0 c 0.34,8.951 0.158,18.42 1.878,25.988 1.437,6.356 11.483,14.812 11.483,14.812 0,0 4.446,0.32 8.692,-0.095 -3.4,-4.617 -8.224,-7.604 -9.837,-12.438 -3.004,-9.009 -3.004,-18.514 -1.527,-28.267 z"
       id="path15"
       inkscape:connector-curvature="0"
       style="clip-rule:evenodd;fill:#505050;fill-rule:evenodd;stroke:#505050;stroke-width:4.56850004;stroke-linecap:round;stroke-linejoin:round;stroke-miterlimit:10" /></g><g
     transform="translate(4.5564632,280.08532)"
     id="g3"><linearGradient
       id="linearGradient3411"
       gradientUnits="userSpaceOnUse"
       x1="22.3076"
       y1="4.3369002"
       x2="34.848598"
       y2="63.681099"><stop
         offset="0"
         style="stop-color:#B56638"
         id="stop3413" /><stop
         offset="0.2951"
         style="stop-color:#B26437"
         id="stop3415" /><stop
         offset="0.4776"
         style="stop-color:#AA5D32"
         id="stop3417" /><stop
         offset="0.6295"
         style="stop-color:#9B512A"
         id="stop3419" /><stop
         offset="0.7647"
         style="stop-color:#87411F"
         id="stop3421" /><stop
         offset="0.8875"
         style="stop-color:#6D2B11"
         id="stop3423" /><stop
         offset="1"
         style="stop-color:#4D1200"
         id="stop3425" /></linearGradient><path
       inkscape:connector-curvature="0"
       style="fill:url(#SVGID_1_)"
       d="m 54.237,40.702 c 1.578,-1.546 2.573,-3.764 2.573,-6.236 0,-4.672 -3.532,-8.459 -7.891,-8.459 l -3.122,0 c 2.047,-1.232 3.498,-2.288 3.498,-5.872 0,-2.725 -0.902,-6.364 -5.501,-7.459 l -4.293,0 C 34.748,0.872 21.469,4.233 21.469,4.233 c 2.377,1.312 2.541,8.442 2.541,8.442 l -3.804,0 c -4.436,1.177 -5.501,4.546 -5.501,7.459 0,3.584 1.451,4.64 3.498,5.872 l -3.123,0 c -4.357,0 -7.891,3.787 -7.891,8.459 0,2.473 0.995,4.69 2.573,6.236 -3.614,1.313 -6.227,5.067 -6.227,9.501 0,5.526 4.053,10.006 9.053,10.006 l 38.822,0 c 5,0 9.053,-4.479 9.053,-10.006 10e-4,-4.432 -2.611,-8.186 -6.226,-9.5 z"
       id="path20" /><path
       inkscape:connector-curvature="0"
       style="fill:none;stroke:#541715;stroke-width:2.5;stroke-miterlimit:3"
       d="m 54.237,40.702 c 1.578,-1.546 2.573,-3.764 2.573,-6.236 0,-4.672 -3.532,-8.459 -7.891,-8.459 l -4.122,0 c 2.047,-1.232 4.498,-2.288 4.498,-5.872 0,-2.725 -0.902,-6.364 -5.501,-7.459 l -4.293,0 C 34.748,0.872 21.469,4.233 21.469,4.233 c 2.377,1.312 2.541,8.442 2.541,8.442 l -3.804,0 c -4.436,1.177 -5.501,4.546 -5.501,7.459 0,3.584 2.451,4.64 4.498,5.872 l -4.123,0 c -4.357,0 -7.891,3.787 -7.891,8.459 0,2.473 0.995,4.69 2.573,6.236 -3.614,1.313 -6.227,5.067 -6.227,9.501 0,5.526 4.053,10.006 9.053,10.006 l 38.822,0 c 5,0 9.053,-4.479 9.053,-10.006 10e-4,-4.432 -2.611,-8.186 -6.226,-9.5 z"
       id="path22" /><g
       id="g24"><g
         id="g26"><line
           style="fill:none;stroke:#ff6990;stroke-width:3;stroke-miterlimit:10"
           x1="10.68"
           y1="29.278999"
           x2="13.6"
           y2="32.721001"
           id="line28" /><line
           style="fill:none;stroke:#ff6990;stroke-width:3;stroke-miterlimit:10"
           x1="13.89"
           y1="29.278999"
           x2="16.811001"
           y2="32.721001"
           id="line30" /><line
           style="fill:none;stroke:#ff6990;stroke-width:3;stroke-miterlimit:10"
           x1="17.101"
           y1="29.278999"
           x2="20.021"
           y2="32.721001"
           id="line32" /></g><g
         id="g34"><line
           style="fill:none;stroke:#ff6990;stroke-width:3;stroke-miterlimit:10"
           x1="44.028"
           y1="29.278999"
           x2="46.948002"
           y2="32.721001"
           id="line36" /><line
           style="fill:none;stroke:#ff6990;stroke-width:3;stroke-miterlimit:10"
           x1="47.237"
           y1="29.278999"
           x2="50.159"
           y2="32.721001"
           id="line38" /><line
           style="fill:none;stroke:#ff6990;stroke-width:3;stroke-miterlimit:10"
           x1="50.449001"
           y1="29.278999"
           x2="53.368999"
           y2="32.721001"
           id="line40" /></g></g><path
       inkscape:connector-curvature="0"
       style="fill:none;stroke:#2b0101;stroke-width:3;stroke-miterlimit:10"
       d="m 19.184,28.126 c 0,-4.211 1.607,-7.624 3.59,-7.624 1.982,0 3.59,3.413 3.59,7.624"
       id="path42" /><path
       inkscape:connector-curvature="0"
       style="fill:none;stroke:#2b0101;stroke-width:3;stroke-miterlimit:10"
       d="m 37.773,28.126 c 0,-4.211 1.607,-7.624 3.591,-7.624 1.981,0 3.589,3.413 3.589,7.624"
       id="path44" /><path
       inkscape:connector-curvature="0"
       style="fill:#ffffff"
       d="m 23.713,38.443 16.589,0 c 0,0 1.227,17.951 -8.364,17.951 -9.591,0 -8.225,-17.951 -8.225,-17.951 z"
       id="path46" /><g
       id="g48"><defs
         id="defs50"><path
           inkscape:connector-curvature="0"
           id="SVGID_2_"
           d="m 23.713,38.443 16.589,0 c 0,0 1.227,17.951 -8.364,17.951 -9.591,0 -8.225,-17.951 -8.225,-17.951 z" /></defs><clipPath
         id="clipPath3444"><use
           height="100%"
           width="100%"
           y="0"
           x="0"
           xlink:href="#SVGID_2_"
           style="overflow:visible"
           id="use3446" /></clipPath><ellipse
         style="fill:#ff5a7e"
         cx="32.033001"
         cy="51.049"
         rx="8.3199997"
         ry="5.7379999"
         id="ellipse56"
         clip-path="url(#SVGID_3_)" /></g><path
       inkscape:connector-curvature="0"
       style="fill:none;stroke:#3a0202;stroke-width:2;stroke-miterlimit:10"
       d="m 23.713,38.443 16.589,0 c 0,0 1.227,17.951 -8.364,17.951 -9.591,0 -8.225,-17.951 -8.225,-17.951 z"
       id="path58" /></g><rect
     style="fill:#f9f9f9;fill-opacity:1"
     id="rect3445"
     width="299.33051"
     height="59.381355"
     x="9.6529484"
     y="360.55933" /><flowRoot
     xml:space="preserve"
     id="flowRoot3435"
     style="font-style:normal;font-weight:normal;font-size:40px;line-height:125%;font-family:sans-serif;letter-spacing:0px;word-spacing:0px;fill:#000000;fill-opacity:1;stroke:none;stroke-width:1px;stroke-linecap:butt;stroke-linejoin:miter;stroke-opacity:1"
     transform="matrix(0.94871795,0,0,1,-2.027874,9.6949152)"><flowRegion
       id="flowRegion3437"><rect
         id="rect3439"
         width="342.95764"
         height="54.533897"
         x="36.35593"
         y="359.34744" /></flowRegion><flowPara
       id="flowPara3441"
       style="font-size:30px;fill:#ff00ff">Ivy's Pooping Cats</flowPara></flowRoot></svg>