<?xml version="1.0" encoding="UTF-8" standalone="no"?>
<svg
   xmlns:dc="http://purl.org/dc/elements/1.1/"
   xmlns:cc="http://creativecommons.org/ns#"
   xmlns:rdf="http://www.w3.org/1999/02/22-rdf-syntax-ns#"
   xmlns:svg="http://www.w3.org/2000/svg"
   xmlns="http://www.w3.org/2000/svg"
   xmlns:sodipodi="http://sodipodi.sourceforge.net/DTD/sodipodi-0.dtd"
   xmlns:inkscape="http://www.inkscape.org/namespaces/inkscape"
   viewBox="0 0 64 64"
   enable-background="new 0 0 64 64"
   id="svg2"
   version="1.1"
   inkscape:version="0.91 r13725"
   sodipodi:docname="fish.svg"
   width="64"
   height="64"
   inkscape:export-filename="C:\Users\Travis\Documents\Systems\Ivy's Pooping Cats\assets\images\fish.png"
   inkscape:export-xdpi="90"
   inkscape:export-ydpi="90">
  <metadata
     id="metadata38">
    <rdf:RDF>
      <cc:Work
         rdf:about="">
        <dc:format>image/svg+xml</dc:format>
        <dc:type
           rdf:resource="http://purl.org/dc/dcmitype/StillImage" />
        <dc:title />
      </cc:Work>
    </rdf:RDF>
  </metadata>
  <defs
     id="defs36" />
  <sodipodi:namedview
     pagecolor="#ffffff"
     bordercolor="#666666"
     borderopacity="1"
     objecttolerance="10"
     gridtolerance="10"
     guidetolerance="10"
     inkscape:pageopacity="0"
     inkscape:pageshadow="2"
     inkscape:window-width="1920"
     inkscape:window-height="1017"
     id="namedview34"
     showgrid="false"
     inkscape:zoom="1"
     inkscape:cx="-76.957627"
     inkscape:cy="32"
     inkscape:window-x="-8"
     inkscape:window-y="-8"
     inkscape:window-maximized="1"
     inkscape:current-layer="svg2" />
  <g
     transform="matrix(0.96863276,0,0,0.88962484,2.0003451,10.999995)"
     id="g4">
    <g
       id="g6"
       style="fill:#25333a">
      <path
         d="M 52.48,27.987 C 64.668,27.636 64.857,45.875 62.762,45.285 56.219,43.44 50.256,28.051 52.48,27.987"
         id="path8"
         inkscape:connector-curvature="0" />
      <path
         d="M 29.551,20.938 C 18.372,4.878 35.533,-2.338 36.833,0.667 c 4.074,9.404 -5.244,23.2 -7.282,20.271"
         id="path10"
         inkscape:connector-curvature="0" />
      <path
         d="M 52.48,27.975 C 64.668,28.33 64.857,10.094 62.762,10.683 56.219,12.525 50.256,27.914 52.48,27.975"
         id="path12"
         inkscape:connector-curvature="0" />
    </g>
    <path
       d="M 23.584,45.3 C 14.9,45.3 7.872,37.19 7.872,27.17 c 0,-10.02 7.03,-18.13 15.712,-18.13 8.667,0 30.06,8.113 30.06,18.13 0,10.02 -21.396,18.13 -30.06,18.13"
       id="path14"
       inkscape:connector-curvature="0"
       style="fill:#62818e" />
    <path
       d="m 11.11,38.17 c 2.87,4.328 7.379,7.126 12.47,7.126 8.559,0 29.511,-7.909 30.04,-17.755 -12.176,9.24 -27.468,13.608 -42.509,10.629"
       id="path16"
       inkscape:connector-curvature="0"
       style="fill:#587178" />
    <path
       d="m 20.903,45.3 c 6.03,0 10.916,-8.11 10.916,-18.13 0,-10.02 -4.884,-18.13 -10.916,-18.13 -6.03,0 -20.892,8.113 -20.892,18.13 0,10.02 14.865,18.13 20.892,18.13"
       id="path18"
       inkscape:connector-curvature="0"
       style="fill:#7093a4" />
    <g
       id="g20">
      <path
         d="m 30.758,22.438 c 0,5.499 -2.971,9.949 -6.641,9.949 -3.669,0 -6.645,-4.451 -6.645,-9.949 0,-5.497 2.976,-9.945 6.645,-9.945 3.67,0 6.641,4.448 6.641,9.945"
         id="path22"
         inkscape:connector-curvature="0"
         style="fill:#ffffff" />
      <path
         d="m 28.416,22.438 c 0,2.88 -1.925,5.214 -4.299,5.214 -2.374,0 -4.299,-2.333 -4.299,-5.214 0,-2.876 1.926,-5.21 4.299,-5.21 2.374,0 4.299,2.334 4.299,5.21"
         id="path24"
         inkscape:connector-curvature="0"
         style="fill:#25333a" />
    </g>
    <g
       id="g26">
      <path
         d="m 13.475,20.882 c 0,4.638 -2.507,8.393 -5.604,8.393 -3.096,0 -5.603,-3.754 -5.603,-8.393 0,-4.635 2.507,-8.389 5.603,-8.389 3.097,0 5.604,3.754 5.604,8.389"
         id="path28"
         inkscape:connector-curvature="0"
         style="fill:#ffffff" />
      <path
         d="m 11.497,20.882 c 0,2.426 -1.623,4.396 -3.625,4.396 -2,0 -3.625,-1.97 -3.625,-4.396 0,-2.431 1.623,-4.396 3.625,-4.396 2,-10e-5 3.625,1.965 3.625,4.396"
         id="path30"
         inkscape:connector-curvature="0"
         style="fill:#25333a" />
    </g>
    <path
       d="m 25.22,38.733 c -1.817,-0.359 -3.775,-0.529 -5.983,-0.529 -2.095,0 -4.174,0.149 -6.12,0.303 -0.678,0.057 -1.647,0.554 -1.623,1.216 0.008,0.176 0.048,0.787 1.268,0.682 1.946,-0.153 3.952,-0.314 5.914,-0.314 1.849,0 3.476,0.146 4.978,0.438 l 0.218,0.02 c 0.202,0 1.986,-0.232 2.071,-1.071 0.012,-0.143 0,-0.605 -0.723,-0.745"
       id="path32"
       inkscape:connector-curvature="0"
       style="fill:#25333a" />
  </g>
</svg>
