<?xml version="1.0" encoding="UTF-8" standalone="no"?>
<!-- Generator: Adobe Illustrator 15.0.2, SVG Export Plug-In . SVG Version: 6.00 Build 0)  -->

<svg
   xmlns:dc="http://purl.org/dc/elements/1.1/"
   xmlns:cc="http://creativecommons.org/ns#"
   xmlns:rdf="http://www.w3.org/1999/02/22-rdf-syntax-ns#"
   xmlns:svg="http://www.w3.org/2000/svg"
   xmlns="http://www.w3.org/2000/svg"
   xmlns:xlink="http://www.w3.org/1999/xlink"
   xmlns:sodipodi="http://sodipodi.sourceforge.net/DTD/sodipodi-0.dtd"
   xmlns:inkscape="http://www.inkscape.org/namespaces/inkscape"
   version="1.1"
   id="レイヤー_1"
   x="0px"
   y="0px"
   width="512"
   height="512"
   viewBox="0 0 512 512"
   xml:space="preserve"
   inkscape:version="0.91 r13725"
   sodipodi:docname="hi-res_poop.svg"
   inkscape:export-filename="C:\Users\Travis\Documents\Systems\Ivy's Pooping Cats\assets\images\hi-res_poop.png"
   inkscape:export-xdpi="90"
   inkscape:export-ydpi="90"><metadata
     id="metadata64"><rdf:RDF><cc:Work
         rdf:about=""><dc:format>image/svg+xml</dc:format><dc:type
           rdf:resource="http://purl.org/dc/dcmitype/StillImage" /><dc:title></dc:title></cc:Work></rdf:RDF></metadata><defs
     id="defs62" /><sodipodi:namedview
     pagecolor="#ffffff"
     bordercolor="#666666"
     borderopacity="1"
     objecttolerance="10"
     gridtolerance="10"
     guidetolerance="10"
     inkscape:pageopacity="0"
     inkscape:pageshadow="2"
     inkscape:window-width="1920"
     inkscape:window-height="1017"
     id="namedview60"
     showgrid="false"
     inkscape:zoom="1"
     inkscape:cx="32"
     inkscape:cy="97.084746"
     inkscape:window-x="-8"
     inkscape:window-y="-8"
     inkscape:window-maximized="1"
     inkscape:current-layer="レイヤー_1" /><g
     id="g3"
     transform="matrix(8.1603779,0,0,6.9844612,-3.12493,29.50066)"><linearGradient
       id="SVGID_1_"
       gradientUnits="userSpaceOnUse"
       x1="22.3076"
       y1="4.3369002"
       x2="34.848598"
       y2="63.681099"><stop
         offset="0"
         style="stop-color:#B56638"
         id="stop6" /><stop
         offset="0.2951"
         style="stop-color:#B26437"
         id="stop8" /><stop
         offset="0.4776"
         style="stop-color:#AA5D32"
         id="stop10" /><stop
         offset="0.6295"
         style="stop-color:#9B512A"
         id="stop12" /><stop
         offset="0.7647"
         style="stop-color:#87411F"
         id="stop14" /><stop
         offset="0.8875"
         style="stop-color:#6D2B11"
         id="stop16" /><stop
         offset="1"
         style="stop-color:#4D1200"
         id="stop18" /></linearGradient><path
       style="fill:url(#SVGID_1_)"
       d="m 54.237,40.702 c 1.578,-1.546 2.573,-3.764 2.573,-6.236 0,-4.672 -3.532,-8.459 -7.891,-8.459 l -3.122,0 c 2.047,-1.232 3.498,-2.288 3.498,-5.872 0,-2.725 -0.902,-6.364 -5.501,-7.459 l -4.293,0 C 34.748,0.872 21.469,4.233 21.469,4.233 c 2.377,1.312 2.541,8.442 2.541,8.442 l -3.804,0 c -4.436,1.177 -5.501,4.546 -5.501,7.459 0,3.584 1.451,4.64 3.498,5.872 l -3.123,0 c -4.357,0 -7.891,3.787 -7.891,8.459 0,2.473 0.995,4.69 2.573,6.236 -3.614,1.313 -6.227,5.067 -6.227,9.501 0,5.526 4.053,10.006 9.053,10.006 l 38.822,0 c 5,0 9.053,-4.479 9.053,-10.006 10e-4,-4.432 -2.611,-8.186 -6.226,-9.5 z"
       id="path20"
       inkscape:connector-curvature="0" /><path
       style="fill:none;stroke:#541715;stroke-width:2.5;stroke-miterlimit:3"
       d="m 54.237,40.702 c 1.578,-1.546 2.573,-3.764 2.573,-6.236 0,-4.672 -3.532,-8.459 -7.891,-8.459 l -4.122,0 c 2.047,-1.232 4.498,-2.288 4.498,-5.872 0,-2.725 -0.902,-6.364 -5.501,-7.459 l -4.293,0 C 34.748,0.872 21.469,4.233 21.469,4.233 c 2.377,1.312 2.541,8.442 2.541,8.442 l -3.804,0 c -4.436,1.177 -5.501,4.546 -5.501,7.459 0,3.584 2.451,4.64 4.498,5.872 l -4.123,0 c -4.357,0 -7.891,3.787 -7.891,8.459 0,2.473 0.995,4.69 2.573,6.236 -3.614,1.313 -6.227,5.067 -6.227,9.501 0,5.526 4.053,10.006 9.053,10.006 l 38.822,0 c 5,0 9.053,-4.479 9.053,-10.006 10e-4,-4.432 -2.611,-8.186 -6.226,-9.5 z"
       id="path22"
       inkscape:connector-curvature="0" /><g
       id="g24"><g
         id="g26"><line
           style="fill:none;stroke:#ff6990;stroke-width:3;stroke-miterlimit:10"
           x1="10.68"
           y1="29.278999"
           x2="13.6"
           y2="32.721001"
           id="line28" /><line
           style="fill:none;stroke:#ff6990;stroke-width:3;stroke-miterlimit:10"
           x1="13.89"
           y1="29.278999"
           x2="16.811001"
           y2="32.721001"
           id="line30" /><line
           style="fill:none;stroke:#ff6990;stroke-width:3;stroke-miterlimit:10"
           x1="17.101"
           y1="29.278999"
           x2="20.021"
           y2="32.721001"
           id="line32" /></g><g
         id="g34"><line
           style="fill:none;stroke:#ff6990;stroke-width:3;stroke-miterlimit:10"
           x1="44.028"
           y1="29.278999"
           x2="46.948002"
           y2="32.721001"
           id="line36" /><line
           style="fill:none;stroke:#ff6990;stroke-width:3;stroke-miterlimit:10"
           x1="47.237"
           y1="29.278999"
           x2="50.159"
           y2="32.721001"
           id="line38" /><line
           style="fill:none;stroke:#ff6990;stroke-width:3;stroke-miterlimit:10"
           x1="50.449001"
           y1="29.278999"
           x2="53.368999"
           y2="32.721001"
           id="line40" /></g></g><path
       style="fill:none;stroke:#2b0101;stroke-width:3;stroke-miterlimit:10"
       d="m 19.184,28.126 c 0,-4.211 1.607,-7.624 3.59,-7.624 1.982,0 3.59,3.413 3.59,7.624"
       id="path42"
       inkscape:connector-curvature="0" /><path
       style="fill:none;stroke:#2b0101;stroke-width:3;stroke-miterlimit:10"
       d="m 37.773,28.126 c 0,-4.211 1.607,-7.624 3.591,-7.624 1.981,0 3.589,3.413 3.589,7.624"
       id="path44"
       inkscape:connector-curvature="0" /><path
       style="fill:#ffffff"
       d="m 23.713,38.443 16.589,0 c 0,0 1.227,17.951 -8.364,17.951 -9.591,0 -8.225,-17.951 -8.225,-17.951 z"
       id="path46"
       inkscape:connector-curvature="0" /><g
       id="g48"><defs
         id="defs50"><path
           id="SVGID_2_"
           d="m 23.713,38.443 16.589,0 c 0,0 1.227,17.951 -8.364,17.951 -9.591,0 -8.225,-17.951 -8.225,-17.951 z"
           inkscape:connector-curvature="0" /></defs><clipPath
         id="SVGID_3_"><use
           xlink:href="#SVGID_2_"
           style="overflow:visible"
           id="use54"
           x="0"
           y="0"
           width="100%"
           height="100%" /></clipPath><ellipse
         style="fill:#ff5a7e"
         cx="32.033001"
         cy="51.049"
         rx="8.3199997"
         ry="5.7379999"
         id="ellipse56"
         clip-path="url(#SVGID_3_)" /></g><path
       style="fill:none;stroke:#3a0202;stroke-width:2;stroke-miterlimit:10"
       d="m 23.713,38.443 16.589,0 c 0,0 1.227,17.951 -8.364,17.951 -9.591,0 -8.225,-17.951 -8.225,-17.951 z"
       id="path58"
       inkscape:connector-curvature="0" /></g></svg>