<?xml version="1.0" encoding="UTF-8" standalone="no"?>
<!-- Generator: Adobe Illustrator 10.0, SVG Export Plug-In . SVG Version: 3.0.0 Build 77)  -->

<svg
   xmlns:i="http://ns.adobe.com/AdobeIllustrator/10.0/"
   xmlns:dc="http://purl.org/dc/elements/1.1/"
   xmlns:cc="http://creativecommons.org/ns#"
   xmlns:rdf="http://www.w3.org/1999/02/22-rdf-syntax-ns#"
   xmlns:svg="http://www.w3.org/2000/svg"
   xmlns="http://www.w3.org/2000/svg"
   xmlns:sodipodi="http://sodipodi.sourceforge.net/DTD/sodipodi-0.dtd"
   xmlns:inkscape="http://www.inkscape.org/namespaces/inkscape"
   enable-background="new 0 0 134.1 164.772"
   height="64"
   i:pageBounds="0 792 612 0"
   i:rulerOrigin="0 0"
   i:viewOrigin="238 478"
   overflow="visible"
   space="preserve"
   viewBox="0 0 63.999999 63.999999"
   width="64"
   id="svg2"
   version="1.1"
   inkscape:version="0.91 r13725"
   sodipodi:docname="milk.svg"
   style="overflow:visible">
  <defs
     id="defs25" />
  <sodipodi:namedview
     pagecolor="#ffffff"
     bordercolor="#666666"
     borderopacity="1"
     objecttolerance="10"
     gridtolerance="10"
     guidetolerance="10"
     inkscape:pageopacity="0"
     inkscape:pageshadow="2"
     inkscape:window-width="1920"
     inkscape:window-height="1017"
     id="namedview23"
     showgrid="false"
     inkscape:zoom="8.000119"
     inkscape:cx="32"
     inkscape:cy="36.917921"
     inkscape:window-x="-8"
     inkscape:window-y="-8"
     inkscape:window-maximized="1"
     inkscape:current-layer="svg2" />
  <metadata
     id="metadata4">
    <rdf:RDF>
      <cc:Work
         rdf:about="">
        <dc:title>Milk</dc:title>
        <dc:description>Milk</dc:description>
        <dc:subject>
          <rdf:Bag>
            <rdf:li>food</rdf:li>
            <rdf:li>menu</rdf:li>
            <rdf:li>beverage</rdf:li>
            <rdf:li>milk</rdf:li>
          </rdf:Bag>
        </dc:subject>
        <dc:publisher>
          <cc:Agent
             rdf:about="http://www.openclipart.org/">
            <dc:title>Open Clip Art Project</dc:title>
          </cc:Agent>
        </dc:publisher>
        <dc:creator>
          <cc:Agent
             rdf:about="http://web.resource.org/cc/PublicDomain">
            <dc:title>Gerald G.</dc:title>
          </cc:Agent>
        </dc:creator>
        <dc:rights>
          <cc:Agent
             rdf:about="http://web.resource.org/cc/PublicDomain">
            <dc:title>Public Domain</dc:title>
          </cc:Agent>
        </dc:rights>
        <dc:date>2005/05/30</dc:date>
        <dc:format>image/svg+xml</dc:format>
        <dc:type
           rdf:resource="http://purl.org/dc/dcmitype/StillImage" />
        <cc:license
           rdf:resource="http://web.resource.org/cc/PublicDomain" />
        <dc:language>en</dc:language>
      </cc:Work>
      <cc:License
         rdf:about="http://web.resource.org/cc/PublicDomain">
        <cc:permits
           rdf:resource="http://web.resource.org/cc/Reproduction" />
        <cc:permits
           rdf:resource="http://web.resource.org/cc/Distribution" />
        <cc:permits
           rdf:resource="http://web.resource.org/cc/DerivativeWorks" />
      </cc:License>
    </rdf:RDF>
  </metadata>
  <g
     i:dimmedPercent="50"
     i:layer="yes"
     i:rgbTrio="#4F008000FFFF"
     id="Layer_1"
     transform="matrix(0.29445732,0,0,0.3587662,11.876446,2.7634143)">
    <g
       id="g7">
      <path
         d="M 24.03,2.682 C 37.818,1.026 50.958,0.09 63.99,0.018 76.986,-0.09 89.334,0.522 101.609,1.998 l -0.215,14.76 c 6.732,2.34 12.564,5.256 17.496,8.748 4.932,3.492 8.82,7.344 11.951,11.952 2.412,32.58 3.492,56.304 3.24,72.72 -0.252,16.201 -1.836,24.084 -4.752,24.193 -4.535,7.883 -11.592,14.146 -21.168,19.332 -9.648,5.074 -21.672,8.711 -36.359,11.051 C 54.845,158.815 40.626,152.262 28.566,144.522 16.542,136.782 7.074,128.288 0.018,118.747 0.054,116.479 0.306,109.712 0.63,97.759 0.918,85.77 1.422,69.318 1.998,47.574 2.97,44.73 5.418,41.202 9.342,36.99 13.23,32.706 18.558,27.846 25.47,22.266 24.138,19.602 23.418,16.83 23.166,13.518 22.878,10.206 23.167,6.642 24.03,2.682 Z"
         i:knockout="Off"
         stroke-miterlimit="10"
         id="path9"
         inkscape:connector-curvature="0"
         style="clip-rule:evenodd;fill-rule:evenodd;stroke:#000000;stroke-width:0.036;stroke-miterlimit:10" />
      <path
         d="M 26.37,5.238 C 35.55,4.122 43.866,3.258 52.146,2.934 60.21,2.538 67.23,2.682 75.15,2.934 82.998,3.114 90.99,3.33 99.27,3.87 l -1.115,13.788 c -11.988,1.116 -23.652,2.088 -35.424,2.772 -11.88,0.648 -23.256,1.152 -34.956,1.368 -1.26,-2.844 -2.16,-5.472 -2.304,-8.28 -0.325,-2.844 0.107,-5.472 0.899,-8.28 z"
         i:knockout="Off"
         stroke-miterlimit="10"
         id="path11"
         inkscape:connector-curvature="0"
         style="clip-rule:evenodd;fill:#80c2ff;fill-rule:evenodd;stroke:#000000;stroke-width:0.036;stroke-miterlimit:10" />
      <path
         d="m 27.306,25.038 c 5.616,-0.576 13.824,-1.188 25.308,-1.836 11.448,-0.72 25.487,-1.44 42.804,-2.304 -7.164,8.028 -12.707,15.336 -17.027,22.068 -4.393,6.66 -7.164,12.6 -8.748,17.964 -11.556,1.908 -22.572,2.196 -33.588,0.468 -11.088,-1.728 -21.6,-5.256 -32.22,-10.584 3.132,-5.256 6.66,-9.972 10.584,-14.292 3.887,-4.32 8.135,-8.1 12.887,-11.484 z"
         i:knockout="Off"
         stroke-miterlimit="10"
         id="path13"
         inkscape:connector-curvature="0"
         style="clip-rule:evenodd;fill:#80c2ff;fill-rule:evenodd;stroke:#000000;stroke-width:0.036;stroke-miterlimit:10" />
      <path
         d="m 72.414,61.83 c 0.432,-3.6 2.881,-8.712 7.344,-15.624 4.428,-6.984 10.873,-15.48 19.332,-25.776 5.725,1.944 11.088,4.356 16.092,7.38 4.969,2.952 9.576,6.48 13.824,10.584 -13.752,5.328 -24.984,9.828 -34.523,13.788 -9.469,3.888 -16.776,7.056 -22.069,9.648 z"
         i:knockout="Off"
         stroke-miterlimit="10"
         id="path15"
         inkscape:connector-curvature="0"
         style="clip-rule:evenodd;fill:#80c2ff;fill-rule:evenodd;stroke:#000000;stroke-width:0.036;stroke-miterlimit:10" />
      <path
         d="m 73.314,65.07 c -0.541,27.145 -0.648,48.348 -0.469,64.439 0.18,15.984 0.721,26.244 1.621,31.213 9.576,-1.764 18.504,-4.932 27.611,-9.648 9,-4.787 17.604,-10.729 26.209,-18.396 2.123,-2.592 3.131,-11.34 3.023,-26.639 C 131.202,90.594 129.977,69.282 127.637,41.13 117.629,45.738 108.16,49.986 99.088,54.018 89.875,58.014 81.559,61.65 73.314,65.07 Z"
         i:knockout="Off"
         stroke-miterlimit="10"
         id="path17"
         inkscape:connector-curvature="0"
         style="clip-rule:evenodd;fill:#80c2ff;fill-rule:evenodd;stroke:#000000;stroke-width:0.036;stroke-miterlimit:10" />
      <path
         d="m 3.366,53.55 c 3.96,5.4 11.196,9.036 22.104,11.052 10.908,1.98 24.948,2.34 42.804,0.936 -0.036,24.659 0.36,44.532 0.9,60.731 0.541,16.164 1.369,27.686 2.484,35.389 C 59.922,158.094 48.51,152.91 37.134,145.566 25.686,138.113 14.67,129.185 3.546,117.955 3.006,106.146 2.898,95.238 2.826,84.402 2.754,73.494 2.934,63.486 3.366,53.55 Z"
         i:knockout="Off"
         stroke-miterlimit="10"
         id="path19"
         inkscape:connector-curvature="0"
         style="clip-rule:evenodd;fill:#80c2ff;fill-rule:evenodd;stroke:#000000;stroke-width:0.036;stroke-miterlimit:10" />
      <path
         d="m 24.138,115.471 -0.072,-0.037 -0.036,-0.035 -0.072,-0.037 0,-0.035 -0.072,-0.035 -0.036,-0.072 -0.072,-0.072 0,-0.037 -0.036,-0.035 0,-0.072 -0.072,-0.072 -0.072,-0.072 0,-0.035 -0.036,-0.072 0,-0.035 -0.072,-0.145 0,-0.037 -0.072,-0.07 0,-0.072 -0.036,-0.072 0,-0.107 -0.072,-0.072 0,-0.072 -0.072,-0.107 0,-0.109 -0.036,-0.107 0,-0.035 -0.072,-0.145 0,-0.109 0,-0.07 -0.036,-0.145 -0.036,-0.072 0,-0.072 -0.036,-0.18 0,-0.072 -0.072,-0.107 0,-0.145 0,-0.107 -0.072,-0.145 0,-0.107 0,-0.145 -0.036,-0.145 0,-0.143 -0.036,-0.109 -0.036,-0.18 0,-0.107 0,-0.145 -0.072,-0.18 0,-0.145 0,-0.107 -0.072,-0.217 0,-0.18 0,-0.107 -0.072,-0.217 0,-0.143 0,-0.182 0,-0.18 -0.036,-0.18 0,-0.18 -0.036,-0.217 -0.036,-0.18 0,-0.143 0,-0.182 0,-0.107 -0.036,-0.145 -0.036,-0.18 0,-0.145 0,-0.107 0,-0.18 -0.072,-0.145 0,-0.143 0,-0.182 0,-0.107 0,-0.145 -0.072,-0.18 0,-0.145 0,-0.107 0,-0.18 -0.072,-0.145 0,-0.143 0,-0.145 0,-0.145 -0.072,-0.145 0,-0.18 0,-0.143 0,-0.109 0,-0.18 -0.036,-0.145 0,-0.143 -0.036,-0.145 0,-0.145 -0.036,-0.145 0,-0.18 -0.036,-0.252 -0.036,-0.324 0,-0.287 -0.072,-0.359 -0.072,-0.361 0,-0.395 -0.072,-0.396 0,-0.432 -0.072,-0.434 -0.072,-0.504 0,-0.467 -0.072,-0.469 -0.036,-0.539 -0.072,-0.576 -0.036,-0.541 -0.036,-0.576 -0.072,-0.611 -0.072,-0.684 -0.072,-0.613 -0.072,-0.684 -0.072,-0.648 0,-0.719 -0.072,-0.684 -0.072,-0.793 -0.072,-0.721 -0.072,-0.791 -0.072,-0.828 -0.072,-0.791 -0.072,-0.828 -0.072,-0.865 -0.072,-0.9 -0.072,-0.898 -0.108,0.467 -0.036,0.469 -0.036,0.432 -0.072,0.504 -0.108,0.432 -0.036,0.432 -0.072,0.506 -0.036,0.471 -0.036,0.432 -0.108,0.432 -0.072,0.506 -0.036,0.432 -0.036,0.467 -0.108,0.434 -0.072,0.432 -0.036,0.467 -0.036,0.504 -0.108,0.396 -0.072,0.469 -0.036,0.467 -0.072,0.469 -0.108,0.396 -0.036,0.467 -0.036,0.469 -0.072,0.432 -0.072,0.469 -0.072,0.467 -0.036,0.434 -0.072,0.432 -0.108,0.467 -0.036,0.434 -0.036,0.432 0,0.18 -0.072,0.107 0,0.145 -0.036,0.145 0,0.18 0,0.107 -0.036,0.145 0,0.145 0,0.143 -0.072,0.145 0,0.145 0,0.143 -0.036,0.109 0,0.18 -0.072,0.107 0,0.145 0,0.18 -0.036,0.072 0,0.18 0,0.145 -0.036,0.107 0,0.18 0,0.145 -0.072,0.107 0,0.145 -0.036,0.145 0,0.107 0,0.18 -0.072,0.145 0.036,0.145 0,0.143 -0.072,0.109 0,0.18 -0.036,0.18 0,0.145 -0.072,0.143 0,0.182 -0.036,0.107 0,0.18 0,0.145 -0.072,0.143 0.036,0.182 -0.072,0.107 0,0.18 -0.036,0.145 0,0.107 -0.072,0.145 0,0.145 -0.036,0.107 0,0.145 -0.072,0.107 0,0.107 0.036,0.18 -0.072,0.072 0,0.145 -0.072,0.107 0.036,0.145 -0.072,0.072 0,0.143 -0.072,0.072 0.036,0.145 -0.072,0.037 0,0.107 -0.036,0.107 0,0.107 -0.072,0.109 0,0.107 -0.036,0.107 -0.072,0.037 0,0.107 -0.036,0.072 0,0.072 -0.072,0.072 -0.036,0.07 0,0.072 -0.072,0.072 -0.036,0.037 0,0.035 -0.072,0.037 -0.072,0.035 0.036,0.072 -0.072,0 -0.072,0 0.036,0.072 -0.072,0.035 -0.072,0 -0.036,-0.035 0,0.035 -0.072,0 -0.036,0.037 -0.072,-0.037 -0.072,-0.035 -0.036,0 -0.072,-0.037 -0.036,-0.035 -0.072,-0.037 -0.036,0 -0.072,-0.035 -0.072,-0.072 -0.036,-0.072 -0.072,-0.035 0,-0.037 -0.036,-0.107 -0.072,0 0,-0.072 -0.072,-0.035 -0.036,-0.072 0,-0.072 -0.072,-0.107 0,-0.037 -0.072,-0.072 0,-0.07 -0.036,-0.072 -0.072,-0.109 0,-0.07 -0.072,-0.072 0,-0.109 -0.036,-0.107 0,-0.072 -0.072,-0.107 0,-0.107 0,-0.109 -0.072,-0.107 0,-0.107 -0.036,-0.109 0,-0.107 0,-0.072 -0.072,-0.072 0,-0.07 0,-0.072 0,-0.072 -0.072,-0.107 0,-0.072 0,-0.072 0,-0.072 -0.072,-0.107 0,-0.072 0,-0.109 0,-0.07 0,-0.072 -0.036,-0.109 0,-0.07 0,-0.072 -0.036,-0.109 -0.036,-0.107 0,-0.107 0,-0.072 0,-0.072 -0.072,-0.145 0,-0.072 0,-0.107 0,-0.072 -0.072,-0.107 0,-0.145 0,-0.072 0,-0.107 0,-0.072 -0.072,-0.107 0,-0.145 0,-0.072 0,-0.07 0,-0.072 0,-0.109 -0.072,-0.107 0,-0.107 0,-0.072 0,-0.072 0,-0.107 -0.036,-0.109 0,-0.107 0,-0.072 -0.036,-0.072 0,-0.107 0,-0.072 -0.036,-0.107 0,-0.107 0,-0.072 0,-0.107 0,-0.072 0,-0.072 -0.072,-0.109 0,-0.107 0,-0.107 0,-0.072 0,-0.072 -0.072,-0.107 0,-0.107 0,-0.109 0,-0.072 L 13.554,101 13.446,100.424 13.374,99.848 13.302,99.272 13.23,98.659 13.158,98.085 13.014,97.472 12.978,96.896 12.906,96.32 12.834,95.709 12.762,95.133 12.69,94.522 12.546,93.909 12.474,93.298 12.402,92.687 12.366,92.111 12.294,91.498 12.222,90.887 12.15,90.27 12.078,89.659 12.006,89.046 11.934,88.435 11.862,87.824 11.79,87.211 11.718,86.6 11.646,85.989 11.574,85.341 11.502,84.73 11.43,84.117 11.358,83.469 11.286,82.858 11.214,82.21 l -0.036,0.144 0,0.108 0,0.144 0,0.108 0,0.18 -0.036,0.072 0,0.18 0,0.108 0,0.145 -0.072,0.107 0.036,0.145 0,0.143 0,0.145 -0.072,0.107 0,0.145 0,0.107 0,0.18 0,0.109 -0.036,0.072 0,0.18 0,0.145 0,0.107 -0.036,0.107 0,0.145 0,0.107 0,0.18 -0.072,0.072 0,0.18 0.036,0.109 0,0.143 0,0.145 -0.072,0.107 0,0.396 -0.036,0.359 -0.036,0.396 -0.072,0.393 -0.036,0.359 0,0.396 -0.036,0.359 -0.072,0.396 -0.036,0.359 -0.036,0.361 0,0.395 -0.036,0.361 -0.072,0.396 -0.036,0.395 -0.036,0.361 0,0.359 -0.072,0.396 -0.036,0.359 -0.036,0.359 -0.072,0.361 0.036,0.395 -0.072,0.396 -0.036,0.359 -0.036,0.366 -0.072,0.359 0.036,0.432 -0.072,0.361 -0.036,0.36 -0.036,0.359 -0.072,0.361 0,0.432 -0.036,0.359 0,0.107 0,0.145 -0.036,0.145 0,0.145 0,0.143 0,0.18 0,0.182 0,0.143 -0.036,0.142 0,0.18 0,0.18 0,0.217 -0.072,0.145 0.036,0.215 0,0.18 -0.072,0.182 0.036,0.18 0,0.215 0,0.217 -0.072,0.18 0,0.252 -0.036,0.18 0,0.252 0,0.217 -0.036,0.18 0,0.289 -0.072,0.215 0.036,0.252 0,0.252 -0.072,0.217 0.036,0.287 -0.072,0.217 0,0.107 -0.036,0.107 0,0.109 -0.072,0.035 0,0.107 0,0.145 -0.036,0.037 0,0.07 -0.072,0.072 0,0.072 -0.036,0.072 -0.072,0.037 0,0.07 -0.036,0 0,0.072 -0.072,0.072 -0.036,0 0,0.072 -0.072,0 0,0.035 -0.036,0 -0.072,0 -0.036,0 0,0.072 -0.072,0 -0.036,-0.035 -0.072,0 -0.072,0 -0.036,-0.037 -0.072,-0.035 -0.036,-0.035 -0.072,0 -0.072,-0.037 -0.036,-0.035 0,-0.037 -0.072,-0.035 -0.036,-0.072 -0.072,-0.035 0,-0.037 -0.072,-0.072 -0.036,-0.072 -0.072,-0.072 0,-0.035 -0.072,-0.072 -0.036,-0.072 0,-0.035 -0.072,-0.072 0,-0.035 0,-0.037 -0.036,-0.072 0,-0.035 -0.072,-0.072 0,-0.072 0,-0.035 -0.072,-0.072 0,-0.037 0,-0.072 -0.036,-0.07 0,-0.037 0,-0.035 -0.072,-0.109 0,-0.07 0,-0.109 0,-0.035 -0.072,-0.072 0,-0.072 0,-0.035 0,-0.072 0,-0.037 -0.072,-0.107 0,-0.035 0,-0.037 0,-0.072 0,-0.035 0,-0.072 0,-0.072 -0.036,-0.072 -0.036,-0.072 0,-0.035 0,-0.072 0,-0.072 0,-0.072 0,-0.07 0,-0.037 0,-0.072 0,-0.072 0,-0.035 0,-0.252 0,-0.289 0,-0.215 0,-0.252 -0.036,-0.289 0,-0.252 0.036,-0.252 0,-0.252 0,-0.252 0,-0.324 0.036,-0.215 0,-0.289 0,-0.299 0.036,-0.252 0,-0.324 0,-0.289 0.036,-0.287 0,-0.288 0.072,-0.289 -0.036,-0.287 0.072,-0.324 0,-0.289 0.036,-0.324 0.036,-0.287 0,-0.324 0.036,-0.324 0.072,-0.287 0,-0.361 0.036,-0.322 0.036,-0.289 0.072,-0.359 0.036,-0.324 0,-0.289 0.036,-0.287 0.072,-0.252 0,-0.287 0.036,-0.289 0.036,-0.287 0,-0.289 0.072,-0.252 0.036,-0.287 0,-0.289 0.036,-0.287 0.072,-0.252 -0.036,-0.289 0.072,-0.252 0.036,-0.287 0,-0.324 0.036,-0.287 0.072,-0.217 0,-0.324 0.036,-0.287 0.036,-0.289 0,-0.287 0.072,-0.289 0.036,-0.252 0,-0.287 0.036,-0.289 0.072,-0.287 0.036,-0.289 0,-0.252 0.036,-0.287 0.072,-0.289 -0.036,-0.287 0.072,-0.217 0,-0.252 0,-0.215 0.036,-0.217 0,-0.215 0,-0.217 0.036,-0.216 0,-0.252 0.072,-0.18 0,-0.252 -0.036,-0.219 0.072,-0.216 0,-0.216 -0.036,-0.288 0.072,-0.216 0,-0.216 0,-0.216 0.036,-0.216 0,-0.252 0.036,-0.18 0,-0.252 0,-0.216 0.072,-0.216 -0.036,-0.252 0,-0.216 0.072,-0.216 0,-0.216 0.036,-0.216 0,-0.252 0,-0.216 0.036,-0.252 0,-0.216 0.072,-0.288 -0.036,-0.325 0.072,-0.288 -0.036,-0.324 0.072,-0.288 0,-0.288 0.036,-0.252 0,-0.288 0.072,-0.252 -0.036,-0.252 0.072,-0.252 0.036,-0.216 0,-0.288 0.072,-0.216 -0.036,-0.216 0.072,-0.18 0,-0.215 0.036,-0.18 0.072,-0.18 0,-0.216 0.036,-0.144 0,-0.216 0.072,-0.144 -0.036,-0.18 0.072,-0.144 0.036,-0.108 0,-0.144 0.072,-0.144 0,-0.108 0.036,-0.108 0.072,-0.108 0,-0.108 0.036,-0.072 0,-0.072 0.072,-0.036 0,-0.108 0.036,-0.036 0,-0.072 0.072,-0.072 0,-0.036 0.036,-0.072 0.072,-0.072 0,-0.036 0.072,0 -0.036,-0.108 0.072,0 0,-0.036 0.072,-0.036 0.036,-0.036 0,-0.036 0.072,0 0.036,-0.036 0,-0.036 0.072,-0.036 0.072,0 0.036,-0.036 0.072,0.036 0.036,-0.036 0.072,0 0.072,0.036 0.036,0 0.072,0.036 0.036,0 0.072,0.072 0.072,0 0.036,0.072 0.072,0.036 0.036,0.036 0.036,0.036 0.036,0.036 0.072,0.072 0,0.036 0.036,0.108 0,0.036 0.072,0.036 0.072,0.108 0,0.036 0.036,0.108 0.036,0.072 0.036,0.036 0,0.108 0.072,0.072 0,0.108 0.072,0.108 0,0.072 0.036,0.108 0,0.108 0.072,0.108 0,0.108 0.072,0.144 0,0.072 0.036,0.18 0.036,0.144 0.036,0.18 0,0.18 0,0.18 0.072,0.18 0,0.18 0.072,0.216 0,0.252 0.072,0.216 0,0.252 0.072,0.252 0,0.216 0.072,0.288 0,0.252 0.036,0.288 0.036,0.288 0.036,0.324 0.072,0.324 0,0.288 0.072,0.36 0,0.36 0.072,0.324 0,0.36 0.072,0.36 0,0.36 0.072,0.396 0,0.396 0.072,0.396 0.072,0.432 0,0.432 0.072,0.432 0,0.504 0.072,0.54 0.072,0.54 0.072,0.54 0,0.504 0.072,0.541 0.072,0.576 0.072,0.504 0.072,0.539 0,0.576 0.072,0.539 0.072,0.541 0.072,0.576 0.072,0.576 0.072,0.576 0.072,0.576 0.072,0.576 0.036,0.574 0.072,0.541 0.072,0.611 0.144,0.613 0.072,0.611 0.072,0.576 0.036,0.611 0.072,0.576 0.144,0.648 0.072,0.611 0.072,0.576 0.072,0.648 0.108,0.648 0.072,0.611 0.108,0.648 0.072,-0.576 0.108,-0.576 0.108,-0.539 0.072,-0.541 0.108,-0.576 0.036,-0.576 0.108,-0.539 0.108,-0.576 0.072,-0.613 0.072,-0.539 0.108,-0.576 0.072,-0.576 0.072,-0.611 0.108,-0.576 0.072,-0.611 0.108,-0.576 0.036,-0.613 0.108,-0.576 0.072,-0.611 0.072,-0.576 0.108,-0.611 0.036,-0.648 0.108,-0.611 0.036,-0.576 0.108,-0.613 0.036,-0.646 0.072,-0.613 0.072,-0.647 0.072,-0.612 0.108,-0.648 0.036,-0.612 0.036,-0.648 0,-0.072 0.072,-0.108 0,-0.144 0,-0.108 -0.036,-0.108 0,-0.144 0.072,-0.108 0,-0.072 0,-0.108 0,-0.144 0,-0.108 0,-0.144 0.036,-0.108 0,-0.108 0,-0.072 0,-0.144 0,-0.109 0.072,-0.108 -0.036,-0.144 0,-0.108 0,-0.072 0,-0.144 0.072,-0.108 0,-0.108 0,-0.144 0,-0.108 0,-0.144 0.036,-0.036 0,-0.144 0,-0.108 0,-0.144 0,-0.108 0,0 0,-0.144 0.036,-0.072 0,-0.18 0,-0.108 0,-0.144 0.072,-0.108 0,-0.108 0,-0.144 0,-0.144 0.036,-0.108 0,-0.144 0,-0.072 0,-0.108 0.036,-0.108 0,-0.144 0,-0.108 0,-0.144 0.072,-0.072 0,-0.108 0,-0.108 0.036,-0.072 0,-0.144 0,-0.072 0.072,-0.108 0,-0.072 0,-0.108 0.036,-0.108 0,-0.072 0,-0.072 0.072,-0.072 0,-0.072 0.036,-0.072 0,-0.144 0.072,-0.108 0,-0.072 0.036,-0.108 0,-0.072 0.072,-0.108 0,-0.108 0.036,-0.036 0,-0.108 0.072,-0.072 0,-0.072 0.036,-0.072 0.072,-0.072 0,-0.072 0.036,-0.036 0.072,-0.036 0,-0.072 0.072,-0.036 0.036,0 0,-0.072 0.072,-0.036 0.036,-0.036 0.072,0.036 0,-0.072 0.036,0 0.072,0 0.072,-0.036 0.036,0 0.072,0 0.036,0.036 0.072,0 0.072,0 0.036,0.036 0.072,0.036 0.072,0.072 0.036,0.072 0.072,0.036 0.036,0.072 0.072,0.072 0.072,0.072 0.036,0.108 0,0.072 0.072,0.108 0.072,0.144 0.036,0.144 0.072,0.144 0.072,0.144 0,0.144 0.072,0.108 0.036,0.216 0.072,0.18 0.072,0.18 0,0.18 0.036,0.216 0.072,0.216 0,0.216 0.072,0.216 0.072,0.252 0,0.252 0.036,0.216 0,0.252 0.072,0.288 0.072,0.288 0,0.108 0,0.072 0,0.144 0,0.072 0.072,0.144 0,0.108 0,0.144 0,0.18 0,0.108 0.072,0.18 0,0.18 0,0.144 0,0.144 0.072,0.252 0,0.144 0,0.216 0,0.18 0,0.216 0.072,0.216 0,0.216 0,0.216 0.072,0.288 0,0.18 0,0.288 0,0.252 0.036,0.252 0.036,0.252 0,0.252 0,0.252 0.072,0.324 0,0.288 0,0.252 0.072,0.792 0.072,0.756 0.072,0.719 0,0.721 0.072,0.756 0.072,0.721 0.072,0.719 0.072,0.721 0,0.684 0.072,0.686 0.072,0.719 0.072,0.684 0.072,0.686 0.036,0.684 0.072,0.684 0.036,0.611 0.036,0.686 0.072,0.611 0.072,0.648 0.072,0.646 0.072,0.613 0.072,0.684 0.072,0.576 0.072,0.611 0.036,0.613 0.072,0.574 0.072,0.613 0.072,0.576 0.072,0.576 0.036,0.576 0.072,0.611 0.144,0.539 0,0.145 0,0.18 0,0.109 0.072,0.18 0,0.18 0,0.107 0.036,0.18 0,0.145 0,0.145 0,0.107 0.072,0.217 0,0.107 0,0.145 0.072,0.215 0,0.109 0,0.143 0,0.18 0.072,0.145 0,0.145 0,0.145 0.036,0.18 0,0.107 0.036,0.18 0.036,0.18 0,0.109 0,0.18 0,0.107 0.072,0.18 0,0.18 0,0.109 0.072,0.18 0,0.145 0,0.215 0.072,0.252 0,0.217 0.036,0.252 0.036,0.217 0.036,0.252 0,0.18 0,0.143 0.072,0.252 0,0.182 0,0.18 0.072,0.18 0,0.18 0,0.145 0,0.18 0.072,0.145 0,0.143 0,0.182 0,0.107 0,0.072 0.072,0.18 0,0.145 0,0.072 0,0.143 0,0.072 0,0.072 0,0.107 0,0.072 0,0.072 0.072,0.107 0,0.072 0,0.037 0,0.107 0,0.072 -0.072,0 0,0.107 0,0.072 0,0.035 0,0.109 0,0.072 0,0.035 0,0.107 0,0.037 0,0.072 -0.036,0.035 0,0.072 0,0.035 0,0.037 0,0.107 0,0.035 -0.072,0 0,0.109 0,0.035 0,0.037 -0.036,0.07 0,0.037 0,0.035 -0.072,0.037 0,0.072 0,0.035 -0.036,0 0,0.037 -0.072,0.07 0,0.037 0,0.035 -0.036,0.037 0,0.035 0,0.037 -0.072,0 0,0.035 -0.036,0.035 -0.072,0 0,0.037 0,0.035 -0.036,-0.035 0,0.072 -0.072,0 -0.072,0 -0.036,0.035 0,0.037 -0.072,-0.037 0,0.037 -0.036,-0.037 -0.072,0 -0.072,-0.035 -0.036,0 -0.072,-0.037 -0.036,-0.035 z m 12.456,-30.996 -0.036,0 -0.072,-0.037 -0.072,-0.035 -0.036,0 -0.072,-0.072 -0.072,0 -0.036,-0.035 -0.072,-0.037 -0.036,0 -0.072,-0.035 0,-0.037 -0.072,0 -0.036,-0.037 -0.072,0 -0.036,-0.072 -0.072,-0.035 -0.072,0 -0.036,-0.072 -0.072,0 -0.108,-0.072 -0.072,-0.037 -0.036,-0.035 -0.072,-0.072 -0.036,0 -0.072,-0.035 -0.072,-0.037 -0.036,-0.035 -0.072,-0.072 -0.108,-0.037 -0.072,-0.07 -0.036,0 -0.072,-0.072 -0.072,-0.037 -0.036,0 -0.072,-0.071 -0.072,0 -0.036,-0.072 -0.072,-0.036 -0.036,0 -0.072,-0.072 -0.072,-0.035 -0.036,0 -0.072,-0.072 -0.036,0 -0.072,-0.072 -0.036,-0.036 -0.072,0 -0.072,-0.072 -0.036,-0.036 -0.072,-0.036 -0.072,-0.04 -0.036,0 -0.072,-0.072 -0.036,-0.036 -0.072,-0.036 -0.072,-0.036 -0.036,0 -0.072,-0.072 -0.072,-0.036 -0.036,-0.036 -0.072,-0.036 -0.036,0 -0.072,-0.072 0,0.504 -0.036,0.503 0,0.504 0,0.504 0,0.504 -0.036,0.469 0,0.504 0,0.504 0,0.504 0,0.504 -0.036,0.469 0,0.504 0,0.504 0.036,0.504 0,0.504 0,0.432 0,0.504 -0.072,0.504 0.036,0.504 0,0.434 0,0.504 0,0.467 0,0.469 0,0.504 0.036,0.469 0,0.504 0,0.467 0,0.432 0,0.504 -0.036,0.434 0,0.504 0,0.467 0,0.109 0,0.107 0,0.145 0,0.107 0,0.145 0,0.107 0.072,0.145 0,0.143 0,0.145 0,0.145 0,0.107 0,0.145 0,0.18 0,0.145 0,0.143 0,0.145 0,0.18 0,0.109 0.036,0.18 0,0.143 0,0.182 0,0.143 0,0.18 0,0.145 0,0.18 0,0.182 0,0.18 0,0.18 0,0.145 0,0.18 0,0.18 0,0.18 0,0.18 0,0.18 0,0.182 0,0.18 0,0.18 0.072,0.215 0,0.182 0,0.143 0,0.18 0,0.182 0,0.143 0,0.182 0,0.143 0.036,0.18 0,0.145 0,0.107 0,0.182 0,0.143 0,0.145 0,0.145 0,0.107 0,0.18 0,0.145 0,0.145 0,0.107 0,0.107 0,0.145 0,0.145 0,0.143 0,0.145 0,0.072 0,0.145 0,0.18 0,0.145 0.036,0.18 0,0.145 0,0.18 0,0.18 0,0.107 0,0.217 0,0.107 0,0.18 0,0.145 0,0.145 0,0.18 0,0.145 0,0.18 0,0.143 0,0.109 0,0.18 0,0.145 0,0.143 -0.036,0.109 0,0.18 0,0.143 0,0.145 0,0.107 0,0.145 0,0.145 0,0.145 0,0.143 0,0.109 0,0.143 -0.036,0.109 0.108,0.072 0.108,0.035 0.108,0.072 0.144,0.072 0.108,0.035 0.108,0.072 0.108,0.072 0.108,0.035 0.108,0.072 0.144,0.072 0.108,0 0.108,0.072 0.108,0.035 0.108,0.072 0.108,0.072 0.144,0.037 0.108,0.07 0.108,0.072 0.108,0.037 0.108,0.072 0.144,0.07 0.108,0.037 0.108,0 0.108,0.072 0.108,0.072 0.108,0.035 0.072,0.037 0.108,0.07 0.108,0.072 0.144,0.037 0.108,0.072 0.108,0.035 0.036,0.035 0.072,0.037 0.072,0.035 0.036,0.072 0.072,0.037 0,0.035 0.072,0.035 0,0.037 0.036,0.035 0,0.037 0.072,0.035 0,0.072 0.036,0.072 0,0.035 0.072,0.072 0,0.037 0.072,0.107 0.036,0.072 0,0.035 0,0.037 0.072,0.072 0,0.07 0,0.037 0.036,0.107 0,0.072 0,0.037 0.072,0.07 0,0.037 0,0.072 0.072,0.072 0,0.07 0,0.072 0,0.037 0.036,0.072 0,0.107 0,0.035 0,0.037 0.072,0.107 0,0.072 0,0.035 0,0.109 0,0.035 0.072,0.072 0,0.107 0,0.037 0,0.107 0,0.035 0,0.109 0,0.035 0,0.107 0.072,0.072 0,0.109 0,0.07 0,0.037 0,0.107 0,0.037 0,0.107 0,0.107 0,0.072 0,0.035 0,0.109 0,0.107 0,0.037 -0.072,0.07 0,0.072 0,0.072 0,0.072 0,0.035 0,0.109 0,0.035 0,0.107 -0.036,0 0,0.109 0,0.035 0,0.107 0,0.037 -0.072,0.035 0,0.072 0,0.037 0,0.07 -0.036,0.072 0,0.037 0,0.035 0,0.072 -0.072,0 0,0.037 0,0.107 -0.036,0 0,0.072 0,0.035 -0.072,0 0,0.072 0,0.035 -0.036,0 0,0.037 0,0.072 -0.072,0 0,0.072 -0.036,0 0,0.035 -0.072,-0.035 0,0.07 0,0.037 -0.072,-0.037 0,0.037 -0.036,0.035 -0.072,0 0,0.072 -0.036,-0.035 -0.072,0 -0.072,-0.037 -0.036,-0.035 0,0.072 -0.072,-0.037 -0.036,-0.035 -0.072,-0.037 -0.036,-0.035 -0.072,-0.035 -0.072,-0.037 -0.036,-0.035 -0.072,0 -0.036,-0.037 -0.072,-0.035 -0.072,-0.037 -0.036,-0.035 -0.072,-0.035 -0.036,-0.037 -0.072,-0.035 -0.072,-0.037 -0.036,0 -0.072,-0.035 -0.036,-0.037 -0.072,-0.035 -0.036,-0.035 -0.072,-0.037 -0.108,-0.072 -0.072,-0.035 -0.036,0 -0.072,-0.037 -0.108,-0.035 -0.072,-0.037 -0.036,-0.035 -0.144,-0.035 -0.036,-0.037 -0.072,-0.035 -0.108,-0.072 -0.072,-0.037 -0.036,-0.035 -0.108,-0.035 -0.072,0 -0.036,-0.037 -0.072,-0.035 -0.108,-0.037 -0.072,-0.035 -0.036,-0.037 -0.072,-0.035 -0.036,-0.035 -0.072,-0.037 -0.108,-0.072 -0.072,-0.035 -0.072,0 -0.036,-0.037 -0.072,-0.035 -0.036,-0.037 -0.072,-0.035 -0.036,-0.035 -0.072,-0.037 -0.072,-0.035 -0.036,0 -0.072,-0.037 -0.036,-0.035 -0.072,-0.037 -0.072,-0.035 -0.036,-0.035 -0.072,-0.037 -0.036,-0.035 -0.072,-0.037 -0.072,0 -0.036,0 -0.072,-0.035 -0.036,-0.037 -0.072,-0.035 -0.036,-0.035 -0.072,0.035 -0.072,-0.035 -0.036,-0.037 -0.072,0 -0.036,-0.035 -0.144,-0.037 -0.036,0 -0.072,-0.035 -0.036,0 -0.108,-0.037 -0.072,0 -0.072,-0.035 -0.108,0 -0.036,-0.037 -0.072,0 -0.108,-0.07 -0.072,0.035 -0.108,-0.035 -0.036,-0.037 -0.144,0 -0.036,0 -0.108,-0.072 -0.072,0.037 -0.108,-0.037 -0.108,-0.072 -0.072,0.037 -0.108,-0.037 -0.072,-0.035 -0.108,0 -0.036,-0.035 -0.108,-0.037 -0.072,-0.035 -0.108,0 -0.072,-0.037 -0.036,0 -0.144,-0.035 -0.036,0 -0.072,-0.037 -0.108,-0.035 -0.036,-0.035 -0.072,0 -0.072,-0.037 -0.036,0 -0.072,-0.035 -0.108,-0.072 -0.072,-0.037 -0.036,0.037 -0.072,-0.037 -0.036,-0.035 -0.072,-0.037 -0.036,-0.035 -0.072,-0.035 -0.072,-0.037 -0.036,-0.035 -0.072,0 -0.036,-0.037 -0.072,-0.035 -0.072,-0.072 -0.036,-0.035 0,-0.037 -0.072,-0.035 0,-0.072 -0.036,0 0,-0.072 -0.072,0 0,-0.072 -0.072,-0.035 0,-0.037 0,-0.035 -0.036,-0.037 0,-0.035 -0.072,-0.072 0,-0.035 0,-0.072 -0.072,-0.072 -0.036,-0.072 0,-0.035 0,-0.037 -0.072,-0.072 0,-0.072 0,-0.072 -0.036,-0.07 0,-0.037 -0.036,-0.107 -0.036,-0.072 0,-0.035 0,-0.109 0,-0.035 -0.072,-0.072 0,-0.072 0,-0.072 0,-0.072 -0.036,-0.07 0,-0.037 0,-0.107 0,-0.037 -0.036,-0.072 -0.036,-0.107 0,-0.072 0,-0.035 0,-0.107 0,-0.037 0,-0.072 0,-0.072 0,-0.07 0,-0.072 -0.072,-0.072 0,-0.107 0,-0.037 0,-0.072 0,-0.107 0,-0.035 0,-0.072 0,-0.109 0,-0.035 0,-0.107 0,-0.037 0.036,-0.035 0,-0.072 0,-0.072 0,-0.035 0,-0.109 0,-0.035 0,-0.072 0,-0.072 0,-0.072 0.072,0 0,-0.035 0,-0.107 0,-0.037 0,-0.035 0.036,-0.072 0,-0.037 0,-0.035 0,-0.107 0.072,0 0,-0.037 0,-0.072 0,-0.072 0.036,0 0,-0.07 0,-0.037 0.072,0 0,-0.107 0,-0.037 0.036,0 0,-0.035 0,-0.072 0.072,0 0,-0.035 0.036,-0.037 0,-0.035 0,-0.037 0.072,0 0.036,-0.035 0,-0.037 0,-0.035 0.072,0 0,-0.035 0.072,0.035 0,-0.035 0.036,0.035 0,-0.035 0.072,0 0,-0.037 0.036,0.037 0,-0.037 0.072,0.037 0.036,0 0.072,0.035 0,-0.035 0.072,0.035 0.036,0.035 0.072,0.037 0.036,0 0.072,0.035 0.072,0.037 0.036,0.035 0.072,0.037 0.108,0 0.036,0.035 0.072,0.037 0.072,0.035 0.036,-0.035 0.108,0.07 0.072,0.037 0.072,-0.037 0.036,0.037 0.108,0.072 0.072,0 0.108,0.035 0.072,0 0.108,0.072 0.036,-0.035 0.144,0.035 0.036,0 0.108,0.035 0.144,0 0.036,0.037 0.108,0 0.144,0.035 0.108,0.072 0.036,-0.035 0.072,-0.109 0,-0.18 0,-0.143 0,-0.109 0,-0.143 0,-0.145 0,-0.18 -0.036,-0.109 0,-0.143 0.072,-0.145 0,-0.145 0,-0.18 0,-0.145 0,-0.18 0,-0.107 0,-0.18 -0.036,-0.18 0,-0.145 0,-0.18 0,-0.18 0,-0.145 0,-0.18 0,-0.182 0,-0.18 0,-0.107 0,-0.217 0,-0.143 0,-0.18 0,-0.182 0,-0.18 0,-0.145 0,-0.18 0,-0.143 0,-0.145 0,-0.107 -0.036,-0.145 0,-0.072 0,-0.145 0,-0.143 0,-0.145 0,-0.107 0,-0.145 0,-0.145 0,-0.145 0,-0.18 0,-0.107 0,-0.145 0,-0.145 0,-0.18 0,-0.107 0,-0.145 0,-0.18 0,-0.145 0,-0.143 0,-0.18 -0.036,-0.182 0,-0.107 0,-0.18 0,-0.145 -0.036,-0.215 0,-0.198 -0.036,-0.18 0,-0.18 0,-0.107 0,-0.18 0,-0.182 0,-0.18 0,-0.143 0,-0.182 0,-0.18 0,-0.143 0,-0.182 0,-0.143 0,-0.145 -0.072,-0.18 0,-0.18 0,-0.145 0,-0.18 0,-0.109 0,-0.143 0,-0.18 0,-0.145 0,-0.101 0,-0.145 0,-0.145 0,-0.145 0,-0.107 0,-0.145 0,-0.143 0,-0.145 -0.036,-0.107 0,-0.145 0,-0.107 0,-0.109 0,-0.143 0,-0.072 0,-0.432 0,-0.434 0,-0.395 0,-0.434 -0.036,-0.432 0,-0.396 0,-0.467 0,-0.432 0,-0.43 0.036,-0.467 0,-0.469 0,-0.504 0,-0.432 0,-0.504 -0.036,-0.469 0,-0.504 0.072,-0.467 0,-0.541 -0.036,-0.504 0,-0.539 0,-0.541 0.072,-0.504 -0.036,-0.539 0,-0.541 0,-0.539 0.036,-0.541 0,-0.539 0,-0.576 0.036,-0.576 0,-0.576 0,-0.612 0.036,-0.576 -0.036,-0.036 -0.072,0 -0.072,-0.036 -0.036,-0.036 0,0.072 -0.072,-0.036 -0.036,0 -0.072,-0.036 -0.072,0 -0.036,-0.036 -0.072,0 -0.036,-0.036 -0.072,0 -0.072,-0.036 -0.036,0.036 -0.072,-0.036 -0.036,0 -0.072,-0.036 -0.072,0 -0.036,-0.036 -0.072,0 -0.036,-0.036 -0.072,0 -0.072,-0.036 -0.036,0 -0.072,0 -0.036,0 -0.072,-0.036 -0.072,0 -0.036,-0.036 -0.072,0 -0.036,-0.036 -0.072,0 -0.072,-0.036 -0.036,0 -0.072,-0.036 -0.036,0 -0.072,-0.036 -0.072,0 -0.036,-0.036 -0.072,0 -0.072,-0.036 -0.036,0 -0.072,-0.036 0,0.036 -0.036,0 -0.072,-0.036 -0.072,0 -0.036,-0.036 -0.072,0 -0.036,-0.036 -0.072,0 -0.072,-0.036 -0.036,0 -0.072,-0.036 -0.036,0 -0.072,-0.036 0,-0.036 -0.072,0 -0.036,-0.036 0,-0.036 -0.072,-0.036 -0.036,-0.036 -0.072,-0.072 0,-0.036 -0.072,-0.036 0,-0.036 -0.036,-0.072 -0.072,-0.072 0,-0.036 0,-0.036 -0.072,-0.072 0,-0.036 -0.036,0 0,-0.072 0,-0.036 -0.072,-0.108 0,-0.036 0,-0.036 -0.072,-0.072 0,-0.036 0,-0.036 -0.036,-0.072 0,-0.036 0,-0.108 -0.072,-0.036 0,-0.072 0,-0.036 0,-0.072 -0.072,-0.072 0,-0.036 0,-0.108 0,-0.036 0,-0.036 -0.036,-0.108 0,-0.036 0,-0.108 0,-0.036 0,-0.072 0,-0.072 -0.072,-0.072 0,-0.072 0,-0.072 0,-0.072 0,-0.072 0,-0.072 0,-0.036 0,-0.108 0,-0.072 0,-0.108 0,-0.036 0,0.001 -0.036,-0.18 0,-0.107 0,-0.18 0,-0.144 0,-0.144 0.072,-0.108 0,-0.108 0,-0.144 0,-0.144 0.036,-0.036 0,-0.144 0,-0.108 0.072,-0.108 0,-0.072 0.036,-0.072 0,-0.108 0.072,-0.036 0.036,-0.072 0,-0.108 0.072,-0.036 0.072,-0.072 0.036,0 0,-0.072 0.072,-0.072 0.036,0 0.072,-0.036 0.072,-0.036 0.036,-0.036 0.072,0.036 0.036,-0.036 0.072,0.036 0.108,-0.036 0.072,0.036 0.036,-0.036 0.072,0 0.072,0.036 0.036,0 0.072,-0.036 0.108,0.036 0.036,0.036 0.144,0.036 0.036,-0.036 0.108,0.036 0.072,0 0.108,0.036 0.144,0.036 0.108,0 0.108,0.036 0.072,0 0.108,0.036 0.108,0.036 0.108,0.036 0.18,0.036 0.108,0.036 0.144,0 0.108,0.036 0.18,0.036 0.108,0.036 0.108,0.036 0.18,0.036 0.18,0.036 0.108,0.036 0.18,0.072 0.108,0.036 0.18,0.036 0.18,0.036 0.108,0.036 0.18,0.108 0.108,0.036 0.18,0.036 0.144,0.036 0.18,0.108 0.144,0.036 0.144,0.108 0.18,0.036 0.18,0.108 0.18,0.036 0.18,0.108 0.18,0.072 0.144,0.108 0.18,0.108 0.18,0.036 0.252,0.108 0.144,0.108 0.18,0.108 0.18,0.108 0.252,0.108 0.144,0.108 0.18,0.108 0.252,0.144 0.18,0.108 0.216,0.108 0.252,0.144 0.144,0.108 0.252,0.144 0.18,0.144 0.036,0.036 0.108,0.072 0.072,0.072 0.072,0 0,0.036 0.036,0.072 0.072,0.108 0.072,0.072 0.036,0.072 0.072,0.108 0,0.036 0.072,0.108 0.036,0.108 0.072,0.072 0,0.108 0.072,0.108 0,0.144 0.036,0.108 0,0.072 0.072,0.18 0,0.072 0,0.144 0.036,0.18 0.036,0.144 0,0.072 0.036,0.18 0,0.18 0,0.144 0,0.144 0,0.18 0,0.144 0.036,0.18 0,0.108 0,0.036 0,0.072 0,0.108 0,0.108 0,0.036 0,0.108 0,0.036 0,0.108 0,0.072 -0.072,0.036 0,0.072 0,0.072 0,0.072 0,0.072 -0.036,0.071 0,0.037 0,0.035 0,0.108 -0.072,0.036 0,0.035 0,0.109 0,0.035 -0.072,0.035 0.036,0.072 0,0.072 -0.072,0.037 0,0.035 0,0.037 -0.072,0.035 0,0.035 -0.036,0.072 0,0.072 -0.072,0 0,0.072 0,0.035 -0.036,0.037 -0.072,0 0,0.072 0,0.035 -0.036,0 0,0.037 -0.072,-0.037 0,0.072 -0.072,0 -0.036,0.035 -0.072,0.037 -0.072,0 0.036,0.035 -0.072,-0.035 -0.072,0 0,0.035 -0.036,0 -0.072,-0.029 z m 13.752,42.084 -0.072,0.072 -0.108,0.035 -0.072,0.072 -0.108,0.035 -0.108,0.037 -0.036,0.072 -0.144,0.035 -0.108,0.037 -0.108,0.035 -0.036,0.072 -0.144,0.035 -0.108,0.037 -0.108,0.035 -0.108,-0.035 -0.18,0 -0.108,0.035 -0.108,0.037 -0.108,0.035 -0.18,0.037 -0.108,0 -0.108,0 -0.18,0 -0.108,0.035 -0.18,0 -0.18,0 -0.108,0 -0.18,0 -0.144,0 -0.18,0 -0.18,-0.035 -0.108,0.035 -0.18,0 -0.18,-0.035 -0.144,0 -0.18,-0.072 -0.108,0 -0.18,0 -0.108,-0.037 -0.18,-0.035 -0.18,-0.037 -0.108,-0.035 -0.108,0 -0.18,-0.072 -0.108,0 -0.18,-0.072 -0.108,0 -0.108,0 -0.18,-0.072 -0.108,-0.072 -0.108,0 -0.108,0 -0.108,-0.07 -0.144,-0.037 -0.108,-0.072 -0.18,-0.035 -0.108,-0.072 -0.108,0 -0.036,-0.035 -0.144,-0.072 -0.108,-0.072 -0.108,-0.072 -0.108,0 -0.108,-0.072 -0.072,-0.035 -0.108,-0.072 -0.072,-0.037 -0.036,-0.072 -0.072,-0.035 -0.036,-0.035 -0.144,-0.072 -0.036,0 -0.072,-0.109 -0.036,-0.035 -0.072,-0.035 -0.072,-0.072 -0.036,-0.037 -0.072,-0.072 -0.036,-0.035 -0.072,-0.072 -0.072,-0.035 0,-0.037 -0.036,-0.035 -0.072,-0.109 -0.036,-0.07 -0.072,-0.072 -0.072,-0.037 0,-0.035 -0.036,-0.072 -0.072,-0.107 -0.036,-0.072 0,-0.037 -0.072,-0.107 0,-0.035 -0.072,-0.072 -0.036,-0.072 0,-0.072 -0.072,-0.107 -0.036,-0.145 -0.036,-0.072 -0.036,-0.145 -0.072,-0.107 0,-0.107 -0.036,-0.145 0,-0.072 -0.072,-0.18 0,-0.107 -0.072,-0.18 0,-0.145 -0.036,-0.107 0,-0.145 -0.072,-0.18 0,-0.145 0,-0.145 -0.072,-0.18 0,-0.145 0,-0.18 -0.036,-0.18 0,-0.18 0,-0.145 0,-0.18 0,-0.18 -0.072,-0.18 0,-0.217 0,-0.18 0,-0.18 0,-0.18 0,-0.217 0,-0.217 0,-0.287 -0.036,-0.287 0,-0.324 0,-0.289 0.072,-0.324 0,-0.287 0,-0.324 0,-0.287 -0.036,-0.289 0,-0.324 0,-0.287 0,-0.324 0.072,-0.252 0,-0.289 0,-0.322 0,-0.289 0,-0.324 -0.036,-0.287 0,-0.361 0.072,-0.252 0,-0.287 0,-0.324 0,-0.287 0,-0.324 -0.036,-0.289 0,-0.287 0,-0.324 0.072,-0.252 0,-0.324 0,-0.287 0,-0.361 0,-0.287 -0.036,-0.828 0.072,-0.828 -0.036,-0.863 0,-0.865 0,-0.863 0.036,-0.828 0,-0.9 0,-0.863 0,-0.9 0.036,-0.863 0,-0.9 0,-0.9 -0.036,-0.9 0,-0.971 0.072,-0.865 -0.036,-0.973 0,-0.898 0,-0.938 0,-0.971 -0.036,-0.936 0,-0.973 0,-0.973 0,-0.971 0.036,-0.973 0,-0.973 0,-0.971 -0.036,-1.01 0,-1.008 0,-1.007 0,-1.044 -0.036,-1.008 0,-1.052 0,-0.036 0,-0.108 0,-0.072 0,-0.072 0,-0.072 0,-0.036 0,-0.108 0,-0.108 0,-0.036 0,-0.108 0.072,-0.036 -0.036,-0.072 0,-0.072 0,-0.036 0,-0.108 0,-0.036 0.072,-0.072 0,-0.036 0,-0.072 0,-0.072 0,-0.072 0.036,-0.036 0,-0.036 0,-0.108 0,-0.036 0.072,-0.036 0,-0.036 0,-0.108 0.072,-0.036 0,-0.036 0,-0.036 0.036,-0.036 0,-0.036 0,-0.072 0.072,-0.036 0,-0.036 0,-0.036 0.036,-0.036 0,-0.072 0.072,0 0,-0.072 0,-0.036 0.072,-0.036 0,-0.036 0.036,0 0,-0.036 0,-0.036 0.072,0 0,-0.036 0.036,0 0,-0.036 0.072,0 0,-0.036 0.072,0 0,-0.036 0.036,0 0.072,0 0.036,0 0.072,0 0.072,0.036 0.036,0 0.072,0.036 0,0.036 0.036,0 0.072,0.036 0,0.036 0.072,0.036 0,0.036 0.036,0 0,0.072 0.072,0 0,0.072 0.036,0 0.036,0.036 0,0.072 0.036,0 0,0.036 0.072,0.072 0,0.072 0.036,0.036 0,0.072 0,0.036 0.072,0.072 0,0.036 0,0.036 0.072,0.072 0,0.036 0.036,0.072 0,0.072 0,0.036 0.072,0.072 0,0.036 0,0.108 0,0.036 0.072,0.072 0,0.036 0,0.108 0,0.036 0.036,0.072 0,0.036 0,0.108 0,0.036 0.072,0.072 0,0.108 0,0.036 0,0.108 0,0.036 0,0.072 0,0.072 0.072,0.072 0,0.108 0,0.036 0,0.108 0,0.072 0,0.072 0,0.108 0,0.036 0,0.108 0,0.072 0,0.072 0,1.044 0,1.08 0.036,1.008 0,1.043 0,1.01 0,1.043 0,1.008 0.036,1.008 0,1.008 0,1.008 0,0.973 -0.036,0.973 0,0.971 0,0.973 0.036,0.973 0,0.971 0,0.973 0,0.936 -0.036,0.9 0,0.973 0,0.9 0,0.936 0.036,0.9 -0.072,0.898 0.036,0.938 0,0.898 -0.072,0.865 0.036,0.9 0,0.863 0,0.863 -0.036,0.9 0,0.865 0,0.107 0,0.145 0,0.143 0,0.145 0,0.145 -0.072,0.107 0,0.145 0,0.143 0,0.145 0,0.145 0.036,0.145 0,0.143 0,0.145 0,0.145 0,0.107 0,0.145 0,0.145 0,0.143 -0.072,0.109 0,0.143 0,0.145 0,0.145 0,0.143 0,0.145 0,0.145 0,0.145 0.036,0.143 0,0.145 0,0.145 0,0.107 0,0.145 0,0.145 -0.072,0.143 0,0.145 0,0.145 0,0.143 0,0.145 0,0.145 0,0.145 0,0.143 0,0.145 0,0.145 0,0.145 -0.036,0.143 0,0.145 0,0.145 0,0.143 0,0.145 0,0.145 0,0.145 0,0.07 0,0.145 0,0.145 0,0.145 0,0.107 0,0.145 0,0.143 0,0.109 0,0.143 0,0.072 0,0.145 0,0.145 0,0.107 0,0.145 0.252,0.107 0.18,0.107 0.144,0.037 0.252,0.143 0.18,0.037 0.216,0.072 0.18,0.107 0.216,0.072 0.216,0 0.18,0.072 0.216,0 0.252,0.072 0.216,0.035 0.216,0.037 0.252,0 0.216,0.035 0.216,-0.035 0.252,-0.037 0.216,0.037 0.288,0 0.216,-0.037 0.252,-0.072 0.288,0 0.216,-0.035 0.288,-0.037 0.216,-0.07 0.288,-0.072 0.288,-0.037 0.288,-0.107 0.216,-0.072 0.288,-0.107 0.288,-0.072 0,-0.037 0.072,0.037 0.036,0.035 0,-0.072 0.072,0.037 0.072,0.035 0,-0.035 0.036,0 0.072,0.035 0.036,0.037 0.072,0.035 0.036,0.037 0,0.035 0.072,0.035 0.072,0.072 0.036,0.037 0,0.035 0.072,0.037 0,0.035 0.036,0.107 0,0.037 0.072,0.035 0,0.037 0.072,0.072 0,0.07 0,0.037 0.036,0.035 0,0.072 0.072,0.072 0,0.035 0.036,0.072 0,0.109 0,0.072 0.072,0.07 0,0.037 0,0.072 0.072,0.107 0,0.072 0,0.035 0.036,0.072 0,0.072 0,0.107 0.072,0.072 0,0.037 0,0.07 0,0.109 0,0.035 0.072,0.072 0,0.072 0,0.072 0,0.072 0,0.035 0.036,0.145 0,0.035 0,0.072 0,0.107 0,0.037 0,0.107 0,0.037 0,0.07 0,0.072 0,0.072 0.072,0.145 0,0.035 0,0.109 0,0.035 0,0.107 0,0.037 0,0.107 0,0.107 0,0.145 0,0.107 0,0.109 -0.072,0.107 0,0.107 0.036,0.109 0,0.107 0,0.072 0,0.107 -0.072,0.072 0,0.107 0,0.107 -0.036,0.072 0,0.109 0,0.072 -0.072,0.07 0,0.109 -0.072,0.035 0,0.107 -0.036,0.072 0,0.037 -0.072,0.072 0,0.035 -0.036,0.072 -0.072,0.035 0,0.109 -0.036,0 -0.072,0.035 0,0.107 -0.072,0 -0.036,0.037 z m 14.184,10.619 -0.108,-0.072 -0.108,-0.107 -0.144,-0.107 -0.108,-0.145 -0.108,-0.107 -0.108,-0.18 -0.108,-0.182 -0.18,-0.252 -0.108,-0.18 -0.108,-0.215 -0.18,-0.324 -0.108,-0.252 -0.18,-0.324 -0.108,-0.289 -0.18,-0.359 -0.108,-0.324 -0.18,-0.396 -0.18,-0.395 -0.18,-0.432 -0.144,-0.396 -0.144,-0.432 -0.144,-0.504 -0.18,-0.469 -0.18,-0.504 -0.216,-0.541 -0.18,-0.539 -0.18,-0.504 -0.18,-0.576 -0.18,-0.648 -0.216,-0.576 -0.18,-0.646 -0.216,-0.648 -0.108,-0.361 -0.072,-0.359 -0.108,-0.359 -0.144,-0.324 -0.108,-0.396 -0.108,-0.359 -0.108,-0.396 -0.108,-0.359 -0.072,-0.289 -0.108,-0.395 -0.108,-0.361 -0.144,-0.396 -0.108,-0.359 -0.108,-0.359 -0.072,-0.324 -0.108,-0.359 -0.108,-0.361 -0.108,-0.395 -0.108,-0.361 -0.144,-0.359 -0.108,-0.324 -0.072,-0.359 -0.108,-0.361 -0.108,-0.359 -0.108,-0.359 -0.108,-0.324 -0.144,-0.359 -0.108,-0.396 -0.072,-0.324 -0.108,-0.359 -0.108,-0.396 -0.108,-0.289 0,0.037 0,0.072 0,0.035 0,0.072 0,0.035 0,0.037 0,0.072 0,0.035 0,0.576 0,0.541 0,0.504 0,0.539 0,0.504 0,0.541 0,0.576 0,0.504 0,0.539 0.036,0.504 0,0.541 0,0.574 0,0.541 0,0.504 0,0.539 0,0.506 0,0.539 0,0.576 0,0.504 0,0.539 0,0.504 0,0.541 0,0.504 0,0.576 0,0.539 0,0.504 0,0.541 0,0.504 0,0.576 0.036,0.539 0,0.504 0,0.541 0,0.215 0,0.182 0,0.18 0,0.145 0,0.215 -0.072,0.145 0,0.145 0,0.143 0,0.18 -0.036,0.072 0,0.145 0,0.107 -0.072,0.109 0,0.107 -0.036,0.072 0,0.107 -0.072,0.072 0,0.072 -0.072,0.035 -0.036,0.037 0,0.107 -0.072,0.035 -0.036,0 -0.072,0.037 -0.036,0 0,0.072 -0.072,0 -0.072,-0.037 -0.036,-0.035 -0.072,0.035 -0.036,-0.035 -0.072,-0.037 -0.072,-0.035 -0.036,-0.035 -0.072,-0.037 -0.036,-0.072 -0.072,-0.035 -0.036,-0.107 -0.072,-0.072 0,-0.037 -0.072,-0.035 -0.036,-0.107 0,-0.037 -0.072,-0.072 0,-0.072 -0.036,-0.072 0,-0.07 -0.072,-0.072 -0.072,-0.072 0,-0.072 -0.036,-0.072 0,-0.107 -0.072,-0.072 0,-0.107 -0.072,-0.072 0,-0.109 0,-0.07 -0.036,-0.145 0,-0.072 -0.072,-0.107 0,-0.109 -0.036,-0.107 0,-0.107 0,-0.072 0,-0.107 -0.072,-0.109 0,-0.07 0,-0.109 -0.072,-0.143 0,-0.037 0,-0.107 0,-0.107 -0.036,-0.109 0,-0.072 0,-0.107 0,-0.107 0,-0.072 -0.072,-0.107 0,-0.109 0,-0.107 0,-0.072 0,-0.072 0,-0.107 0,-0.107 0,-0.109 -0.072,-0.107 0,-0.107 0,-0.107 0,-0.109 0,-0.107 0,-0.107 0,-0.072 0,-0.107 0,-0.469 0,-0.469 0,-0.504 0,-0.539 0,-0.504 0,-0.576 0,-0.576 0,-0.541 0,-0.574 0,-0.613 0,-0.648 0,-0.611 0.036,-0.611 0,-0.686 0,-0.684 0,-0.646 0,-0.758 0,-0.719 -0.036,-0.721 0,-0.719 0,-0.758 0,-0.791 0.072,-0.793 0,-0.756 0,-0.828 -0.036,-0.898 0,-0.828 0,-0.865 0,-0.898 0.072,-0.828 0,-0.938 -0.036,-0.936 0,-0.936 0,-0.863 0,-0.938 0.072,-0.863 -0.036,-0.863 0,-0.828 0,-0.828 0,-0.828 0,-0.828 0,-0.756 0,-0.793 0,-0.756 0.036,-0.756 0,-0.756 0,-0.721 0,-0.719 0,-0.648 0,-0.684 0,-0.684 0,-0.648 0,-0.648 0,-0.611 -0.036,-0.613 0,-0.576 0,-0.574 0,-0.541 0,-0.576 0,-0.539 0,-0.504 0,-0.504 0,-0.469 0,-0.469 0,-0.136 0,-0.107 0,-0.037 0,-0.107 0.072,-0.035 0,-0.109 -0.036,-0.107 0,-0.035 0,-0.109 0,-0.074 0,-0.107 0,-0.035 0,-0.109 0.072,-0.035 0,-0.107 0,-0.037 0,-0.072 0,-0.072 0,-0.072 0.036,-0.036 0,-0.108 0,-0.036 0,-0.074 0.072,-0.036 0,-0.108 0,-0.036 0,-0.036 0.072,-0.036 0,-0.072 0,-0.036 0.036,-0.108 0,-0.036 0,-0.036 0.072,-0.036 0,-0.072 0.072,-0.036 0,-0.036 0,-0.072 0.036,-0.036 0,-0.036 0,-0.072 0.072,-0.036 0,-0.036 0.036,0 0,-0.036 0.072,-0.036 0,-0.072 0.036,-0.036 0.072,-0.036 0.072,0.036 0,-0.036 0.036,0 0,-0.072 0.072,0.036 0.072,0 0.036,-0.036 0.072,0.036 0.036,0 0.072,0.036 0,0.036 0.072,0 0.036,0.036 0.072,0.072 0.036,0.072 0.072,0 0,0.072 0.072,0 0,0.072 0.036,0.036 0,0.072 0.072,0.072 0.072,0.072 0,0.036 0,0.072 0.036,0.036 0,0.072 0.072,0.072 0,0.036 0,0.072 0.036,0.072 0,0.036 0,0.072 0.072,0.036 0,0.108 0,0.072 0.036,0.072 0,0.036 0,0.072 0.072,0.036 0,0.109 0,0.071 0,0.036 0.072,0.072 0,0.107 0,0.072 0,0.035 0,0.109 0.036,0.072 0,0.035 0,0.107 0,0.072 0,0.072 0.036,0.072 0.036,0.107 0,0.072 0,0.107 0,0.037 0,0.107 0,0.107 0,0.037 0,0.107 0,0.072 0,0.107 0,0.109 0,0.215 0,0.18 0,0.217 0,0.217 0,0.215 0,0.252 0,0.217 0,0.252 0,0.252 0,0.287 0,0.252 0.036,0.252 0,0.324 0,0.252 0,0.324 0,0.324 -0.072,0.287 0,0.324 0,0.289 0,0.324 0,0.359 0,0.324 0,0.359 0,0.361 0,0.359 0,0.396 0,0.359 0.036,0.359 -0.072,0.396 0,0.432 0,0.359 0,0.396 0,0.432 0,0.361 0,0.432 0,0.359 -0.036,0.361 0,0.359 0,0.359 0,0.361 0,0.322 0,0.361 0,0.324 0,0.359 0,0.324 0,0.287 0,0.324 -0.072,0.289 0,0.324 0,0.322 0.036,0.252 0,0.324 0,0.252 0,0.324 0,0.252 0,0.252 0,0.289 0,0.18 0,0.287 0,0.252 0,0.182 0,0.287 0,0.217 0,0.18 0.108,-0.217 0.072,-0.215 0.108,-0.217 0.108,-0.217 0.036,-0.287 0.144,-0.217 0.108,-0.215 0.108,-0.289 0.072,-0.215 0.108,-0.289 0.108,-0.252 0.108,-0.252 0.108,-0.252 0.072,-0.287 0.108,-0.289 0.108,-0.324 0.108,-0.287 0.144,-0.252 0.108,-0.289 0.108,-0.322 0.108,-0.252 0.108,-0.361 0.108,-0.324 0.144,-0.324 0.108,-0.322 0.108,-0.324 0.108,-0.324 0.108,-0.361 0.144,-0.322 0.108,-0.324 0.108,-0.396 0.108,-0.324 0.072,-0.287 0.108,-0.361 0.108,-0.252 0.108,-0.359 0.108,-0.289 0.072,-0.287 0.108,-0.324 0.108,-0.287 0.144,-0.324 0.036,-0.324 0.108,-0.324 0.108,-0.287 0.144,-0.289 0.036,-0.359 0.108,-0.289 0.144,-0.324 0.108,-0.287 0.108,-0.287 0.072,-0.361 0.108,-0.287 0.108,-0.361 0.108,-0.287 0.072,-0.287 0.108,-0.361 0.108,-0.287 0.108,-0.324 0.144,-0.289 0.036,-0.315 0.108,-0.361 0.144,-0.287 0.108,-0.324 0.036,-0.324 0.072,-0.072 0,-0.072 0.036,-0.107 0,-0.035 0.072,-0.037 0,-0.107 0,-0.072 0.072,-0.035 0,-0.037 0.036,-0.035 0,-0.072 0.072,-0.037 0,-0.035 0.072,-0.035 0,-0.072 0.036,-0.037 0,-0.077 0.072,0.037 0,-0.072 0.036,-0.037 0.072,-0.035 0.072,0.035 0,-0.07 0.036,0.035 0.072,0 0.072,0 0.036,0.035 0.072,0 0.036,0.037 0.072,0.072 0.036,0 0.072,0.072 0.072,0.072 0,0.07 0.036,0 0,0.072 0.072,0.072 0.036,0.072 0,0.035 0.072,0.072 0,0.072 0.072,0.072 0,0.035 0.036,0.072 0,0.072 0,0.037 0.072,0.072 0,0.07 0.072,0.109 0,0.072 0,0.035 0.036,0.072 0,0.072 0,0.035 0.072,0.072 0,0.107 0,0.072 0,0.037 0.036,0.07 0,0.109 0,0.072 0.072,0.072 0,0.107 0,0.035 0,0.072 0,0.107 0,0.072 0.072,0.109 0,0.035 0,0.107 0,0.072 0,0.107 0,0.072 0,0.109 0,0.035 0,0.107 0.036,0.072 0,0.107 0,0.109 0,0.072 0,0.107 0,0.145 -0.036,0.18 0,0.145 0,0.215 -0.072,0.145 0,0.215 -0.036,0.289 -0.072,0.18 0,0.289 -0.072,0.252 -0.036,0.287 -0.108,0.252 -0.072,0.324 -0.072,0.287 -0.108,0.361 -0.036,0.324 -0.144,0.335 -0.108,0.361 -0.036,0.396 -0.144,0.395 -0.108,0.432 -0.108,0.396 -0.18,0.361 -0.108,0.467 -0.18,0.432 -0.108,0.469 -0.18,0.432 -0.108,0.504 -0.18,0.504 -0.144,0.504 -0.18,0.504 -0.18,0.541 -0.18,0.359 -0.108,0.324 -0.108,0.396 -0.108,0.324 -0.18,0.395 -0.108,0.324 -0.108,0.324 -0.144,0.396 -0.108,0.324 -0.18,0.359 -0.108,0.324 -0.108,0.396 -0.108,0.324 -0.18,0.359 -0.108,0.324 -0.108,0.324 -0.18,0.359 -0.108,0.324 -0.108,0.396 -0.144,0.324 -0.144,0.322 -0.108,0.361 -0.144,0.324 -0.108,0.324 -0.18,0.287 -0.108,0.396 -0.108,0.324 -0.18,0.287 -0.108,0.324 -0.108,0.324 -0.18,0.359 -0.108,0.324 0.108,0.289 0.072,0.287 0.108,0.324 0.072,0.287 0.108,0.361 0.108,0.324 0.108,0.359 0.144,0.359 0.036,0.361 0.108,0.359 0.18,0.396 0.144,0.432 0.108,0.359 0.108,0.432 0.108,0.432 0.108,0.434 0.18,0.432 0.108,0.432 0.18,0.469 0.108,0.467 0.18,0.504 0.144,0.432 0.144,0.506 0.18,0.504 0.108,0.504 0.18,0.576 0.18,0.504 0.18,0.576 0.18,0.504 0.144,0.574 0.18,0.576 0.18,0.541 0.072,0.145 0.036,0.143 0,0.072 0.072,0.107 0,0.109 0.036,0.107 0.072,0.145 0,0.072 0.072,0.107 0.036,0.145 0,0.072 0.072,0.143 0.036,0.109 0,0.107 0.072,0.107 0.072,0.107 0,0.109 0.036,0.143 0,0.109 0.072,0.072 0.036,0.143 0,0.109 0.072,0.07 0.072,0.145 0,0.107 0.036,0.072 0.072,0.145 0,0.107 0.036,0.145 0.072,0.072 0,0.107 0.072,0.145 0.036,0.107 0,0.109 0.072,0.107 0.036,0.107 0,0.107 0.072,0.072 0.072,0.145 0.036,0.072 0,0.107 0.072,0.107 0.036,0.109 0.072,0.107 0,0.035 0.072,0.145 0.036,0.109 0.072,0.07 0.036,0.145 0,0.037 0.072,0.107 0.072,0.072 0.036,0.072 0,0.07 0.072,0.145 0.036,0.072 0.072,0.072 0,0.072 0.072,0.072 0.036,0.107 0.072,0.072 0.036,0.035 0,0.037 0.072,0.107 0.036,0.072 0.072,0.072 0.072,0.143 0.036,0.109 0.072,0.072 0.072,0.143 0,0.037 0.036,0.107 0.072,0.145 0.036,0.143 0,0.037 0.072,0.145 0,0.107 0.036,0.072 0.072,0.145 0,0.107 0.072,0.145 0,0.107 0,0.107 0.036,0.145 0,0.107 0,0.18 0.072,0.145 0,0.107 0,0.145 0,0.145 0.072,0.18 0,0.107 0,0.18 0,0.145 0,0.107 0,0.182 0,0.107 0,0.072 0,0.035 0,0.072 0,0.107 0,0.037 0,0.072 0,0.107 0,0.035 0,0.072 0,0.037 -0.072,0.072 0,0.07 0,0.072 0,0.037 0,0.107 0,0.072 0,0.035 0,0.072 -0.072,0.072 0,0.072 0,0.035 0,0.037 0,0.143 0,0.037 -0.036,0.035 0,0.037 0,0.107 0,0.072 -0.072,0.035 0,0.109 0,0.035 0,0.072 -0.036,0.072 0,0.035 0,0.109 -0.072,0.035 0,0.035 -0.072,0.037 0,0.107 0,0.072 -0.036,0 0,0.072 -0.072,0.035 0,0.037 -0.036,0.035 0,0.037 -0.072,0.035 0,0.037 -0.036,0.035 -0.072,0.035 -0.072,-0.035 0,0.035 -0.036,-0.035 -0.072,0.035 -0.036,-0.035 -0.072,-0.035 0,0.025 0.036,0 -0.036,0 z"
         i:knockout="Off"
         id="path21"
         inkscape:connector-curvature="0"
         style="clip-rule:evenodd;fill-rule:evenodd" />
    </g>
  </g>
</svg>
