<?xml version="1.0" encoding="UTF-8" standalone="no"?>
<svg
   xmlns:dc="http://purl.org/dc/elements/1.1/"
   xmlns:cc="http://creativecommons.org/ns#"
   xmlns:rdf="http://www.w3.org/1999/02/22-rdf-syntax-ns#"
   xmlns:svg="http://www.w3.org/2000/svg"
   xmlns="http://www.w3.org/2000/svg"
   xmlns:sodipodi="http://sodipodi.sourceforge.net/DTD/sodipodi-0.dtd"
   xmlns:inkscape="http://www.inkscape.org/namespaces/inkscape"
   enable-background="new 0 0 32 32"
   height="64"
   id="Layer_1"
   version="1.1"
   viewBox="0 0 64 64"
   width="64"
   x="0px"
   xml:space="preserve"
   y="0px"
   inkscape:version="0.91 r13725"
   sodipodi:docname="settings.svg"
   inkscape:export-filename="C:\Users\Travis\Documents\Systems\Ivy's Pooping Cats\assets\images\settings.png"
   inkscape:export-xdpi="90"
   inkscape:export-ydpi="90"><metadata
     id="metadata14"><rdf:RDF><cc:Work
         rdf:about=""><dc:format>image/svg+xml</dc:format><dc:type
           rdf:resource="http://purl.org/dc/dcmitype/StillImage" /><dc:title /></cc:Work></rdf:RDF></metadata><defs
     id="defs12" /><sodipodi:namedview
     pagecolor="#ffffff"
     bordercolor="#666666"
     borderopacity="1"
     objecttolerance="10"
     gridtolerance="10"
     guidetolerance="10"
     inkscape:pageopacity="0"
     inkscape:pageshadow="2"
     inkscape:window-width="1533"
     inkscape:window-height="854"
     id="namedview10"
     showgrid="false"
     inkscape:zoom="7.375"
     inkscape:cx="-4.2711864"
     inkscape:cy="16"
     inkscape:window-x="401"
     inkscape:window-y="0"
     inkscape:window-maximized="0"
     inkscape:current-layer="Layer_1" /><path
     style="clip-rule:evenodd;fill:#666666;fill-rule:evenodd;stroke:#000000;stroke-opacity:1"
     inkscape:connector-curvature="0"
     id="path4"
     d="M 16,12.042 16,6 C 16,2.692 13.308,0 10,0 6.692,0 4,2.692 4,6 l 0,6.042 C 1.584,13.872 0,16.738 0,20 c 0,3.262 1.584,6.128 4,7.954 L 4,58 c 0,3.308 2.692,6 6,6 3.308,0 6,-2.692 6,-6 L 16,27.954 C 18.416,26.13 20,23.262 20,20 20,16.738 18.416,13.872 16,12.042 Z M 8,6 c 0,-1.106 0.894,-2 2,-2 1.106,0 2,0.894 2,2 l 0,4.2 C 11.354,10.07 10.686,10 10,10 9.314,10 8.646,10.07 8,10.2 L 8,6 Z m 4,52 c 0,1.106 -0.894,2 -2,2 C 8.894,60 8,59.106 8,58 L 8,29.796 C 8.646,29.93 9.314,30 10,30 c 0.686,0 1.354,-0.07 2,-0.204 L 12,58 Z m 3.73,-36.32 c -0.032,0.106 -0.06,0.21 -0.098,0.316 -0.19,0.528 -0.434,1.028 -0.756,1.472 -0.008,0.012 -0.02,0.02 -0.028,0.032 -0.348,0.476 -0.762,0.898 -1.232,1.254 -0.008,0.008 -0.014,0.012 -0.02,0.016 -0.482,0.364 -1.02,0.656 -1.598,0.86 C 11.372,25.856 10.706,26 10,26 9.294,26 8.628,25.856 8,25.628 7.422,25.424 6.884,25.132 6.402,24.768 6.396,24.764 6.39,24.76 6.382,24.752 5.912,24.396 5.498,23.974 5.15,23.498 5.142,23.486 5.13,23.478 5.122,23.466 4.8,23.02 4.556,22.52 4.366,21.994 4.328,21.888 4.3,21.784 4.268,21.678 4.11,21.144 4,20.586 4,20 4,19.41 4.11,18.852 4.27,18.316 4.302,18.21 4.33,18.106 4.368,18.004 4.556,17.476 4.8,16.976 5.124,16.528 5.132,16.516 5.144,16.508 5.152,16.496 5.5,16.024 5.914,15.598 6.384,15.242 6.392,15.238 6.398,15.23 6.404,15.226 6.884,14.868 7.422,14.574 8,14.368 8.628,14.144 9.294,14 10,14 c 0.706,0 1.372,0.144 2,0.368 0.578,0.208 1.116,0.5 1.598,0.86 0.006,0.004 0.012,0.012 0.02,0.016 0.47,0.356 0.884,0.782 1.232,1.254 0.008,0.012 0.02,0.02 0.028,0.032 0.322,0.446 0.566,0.946 0.754,1.474 0.038,0.102 0.068,0.206 0.098,0.312 C 15.89,18.852 16,19.41 16,20 c 0,0.586 -0.11,1.144 -0.27,1.68 z" /><path
     style="clip-rule:evenodd;fill:#666666;fill-rule:evenodd;stroke:#000000;stroke-opacity:1"
     inkscape:connector-curvature="0"
     id="path6"
     d="M 60,12.042 60,6 C 60,2.692 57.308,0 54,0 50.692,0 48,2.692 48,6 l 0,6.042 c -2.418,1.83 -4,4.696 -4,7.958 0,3.262 1.582,6.128 4,7.954 L 48,58 c 0,3.308 2.692,6 6,6 3.308,0 6,-2.692 6,-6 L 60,27.954 C 62.414,26.13 64,23.262 64,20 64,16.738 62.414,13.872 60,12.042 Z M 52,6 c 0,-1.106 0.894,-2 2,-2 1.106,0 2,0.894 2,2 l 0,4.2 C 55.352,10.07 54.684,10 54,10 c -0.688,0 -1.356,0.07 -2,0.2 L 52,6 Z m 4,52 c 0,1.106 -0.894,2 -2,2 -1.106,0 -2,-0.894 -2,-2 L 52,29.796 C 52.644,29.93 53.312,30 54,30 c 0.684,0 1.352,-0.07 2,-0.204 L 56,58 Z m 3.73,-36.32 c -0.032,0.106 -0.062,0.21 -0.098,0.316 -0.192,0.528 -0.434,1.028 -0.758,1.472 -0.008,0.012 -0.02,0.02 -0.028,0.032 -0.348,0.476 -0.762,0.898 -1.23,1.254 -0.008,0.008 -0.016,0.012 -0.02,0.016 -0.484,0.364 -1.02,0.656 -1.598,0.86 C 55.372,25.856 54.704,26 54,26 53.292,26 52.628,25.856 52,25.628 51.422,25.424 50.882,25.132 50.402,24.768 50.394,24.764 50.39,24.76 50.382,24.752 49.91,24.396 49.496,23.974 49.148,23.498 49.14,23.486 49.128,23.478 49.12,23.466 48.8,23.02 48.554,22.52 48.366,21.994 48.326,21.888 48.3,21.784 48.268,21.678 48.11,21.144 48,20.586 48,20 c 0,-0.59 0.11,-1.148 0.27,-1.684 0.032,-0.106 0.058,-0.21 0.098,-0.312 0.188,-0.528 0.434,-1.028 0.754,-1.476 0.008,-0.012 0.02,-0.02 0.028,-0.032 0.348,-0.472 0.762,-0.898 1.234,-1.254 0.008,-0.004 0.012,-0.012 0.02,-0.016 0.48,-0.36 1.02,-0.652 1.598,-0.86 C 52.628,14.144 53.292,14 54,14 c 0.704,0 1.372,0.144 2,0.368 0.578,0.208 1.114,0.5 1.598,0.86 0.004,0.004 0.012,0.012 0.02,0.016 0.468,0.356 0.882,0.782 1.23,1.254 0.008,0.012 0.02,0.02 0.028,0.032 0.324,0.45 0.566,0.95 0.758,1.476 0.036,0.102 0.066,0.208 0.098,0.312 C 59.89,18.852 60,19.41 60,20 c 0,0.586 -0.11,1.144 -0.27,1.68 z" /><path
     style="clip-rule:evenodd;fill:#999999;fill-rule:evenodd;stroke:#000000;stroke-opacity:1"
     inkscape:connector-curvature="0"
     id="path8"
     d="M 38,36.042 38,6 C 38,2.692 35.308,0 32,0 28.692,0 26,2.692 26,6 l 0,30.042 c -2.416,1.828 -4,4.696 -4,7.958 0,3.262 1.584,6.128 4,7.954 L 26,58 c 0,3.308 2.692,6 6,6 3.308,0 6,-2.692 6,-6 l 0,-6.046 C 40.414,50.13 42,47.262 42,44 42,40.738 40.414,37.872 38,36.042 Z M 30,6 c 0,-1.106 0.894,-2 2,-2 1.106,0 2,0.894 2,2 l 0,28.2 C 33.352,34.072 32.684,34 32,34 c -0.686,0 -1.354,0.07 -2,0.2 L 30,6 Z m 4,52 c 0,1.106 -0.894,2 -2,2 -1.106,0 -2,-0.894 -2,-2 l 0,-4.204 C 30.646,53.93 31.314,54 32,54 c 0.684,0 1.352,-0.07 2,-0.204 L 34,58 Z m 3.73,-12.32 c -0.032,0.106 -0.062,0.21 -0.098,0.316 -0.192,0.528 -0.434,1.028 -0.758,1.472 -0.008,0.012 -0.02,0.02 -0.028,0.032 -0.348,0.476 -0.762,0.898 -1.23,1.254 -0.008,0.008 -0.016,0.012 -0.02,0.016 -0.484,0.364 -1.02,0.656 -1.598,0.86 C 33.372,49.856 32.704,50 32,50 31.294,50 30.628,49.856 30,49.628 29.422,49.424 28.884,49.132 28.402,48.768 28.396,48.764 28.39,48.76 28.382,48.752 27.912,48.396 27.498,47.974 27.15,47.498 27.142,47.486 27.13,47.478 27.122,47.466 26.8,47.02 26.556,46.52 26.366,45.994 26.328,45.888 26.3,45.784 26.268,45.678 26.11,45.144 26,44.586 26,44 c 0,-0.59 0.11,-1.148 0.27,-1.684 0.032,-0.106 0.06,-0.21 0.098,-0.312 0.19,-0.528 0.434,-1.028 0.756,-1.476 0.008,-0.012 0.02,-0.02 0.028,-0.032 0.348,-0.472 0.762,-0.898 1.232,-1.254 0.008,-0.004 0.014,-0.012 0.02,-0.016 0.482,-0.36 1.02,-0.652 1.598,-0.86 C 30.628,38.144 31.294,38 32,38 c 0.704,0 1.372,0.144 2,0.368 0.578,0.208 1.114,0.5 1.598,0.86 0.004,0.004 0.012,0.012 0.02,0.016 0.468,0.356 0.882,0.782 1.23,1.254 0.008,0.012 0.02,0.02 0.028,0.032 0.324,0.45 0.566,0.95 0.758,1.476 0.036,0.102 0.066,0.208 0.098,0.312 C 37.89,42.852 38,43.41 38,44 c 0,0.586 -0.11,1.144 -0.27,1.68 z" /><ellipse
     style="fill:#e6e6e6;fill-opacity:1;stroke:none;stroke-opacity:1"
     id="path4139"
     cx="10.033898"
     cy="20.067799"
     rx="5.6949153"
     ry="5.6949158" /><ellipse
     style="fill:#e6e6e6;fill-opacity:1;stroke:none;stroke-opacity:1"
     id="path4139-7"
     cx="32.067795"
     cy="43.932205"
     rx="5.6949153"
     ry="5.6949158" /><ellipse
     style="fill:#e6e6e6;fill-opacity:1;stroke:none;stroke-opacity:1"
     id="path4139-75"
     cx="53.966099"
     cy="19.932203"
     rx="5.6949153"
     ry="5.6949158" /></svg>