<?xml version="1.0" encoding="UTF-8" standalone="no"?>
<svg
   xmlns:dc="http://purl.org/dc/elements/1.1/"
   xmlns:cc="http://creativecommons.org/ns#"
   xmlns:rdf="http://www.w3.org/1999/02/22-rdf-syntax-ns#"
   xmlns:svg="http://www.w3.org/2000/svg"
   xmlns="http://www.w3.org/2000/svg"
   xmlns:sodipodi="http://sodipodi.sourceforge.net/DTD/sodipodi-0.dtd"
   xmlns:inkscape="http://www.inkscape.org/namespaces/inkscape"
   enable-background="new 0 0 32 32"
   height="64"
   id="Layer_1"
   version="1.1"
   viewBox="0 0 64 64"
   width="64"
   x="0px"
   xml:space="preserve"
   y="0px"
   inkscape:version="0.91 r13725"
   sodipodi:docname="trophies.svg"
   inkscape:export-filename="C:\Users\Travis\Documents\Systems\Ivy's Pooping Cats\assets\images\trophy.png"
   inkscape:export-xdpi="90"
   inkscape:export-ydpi="90"><metadata
     id="metadata14"><rdf:RDF><cc:Work
         rdf:about=""><dc:format>image/svg+xml</dc:format><dc:type
           rdf:resource="http://purl.org/dc/dcmitype/StillImage" /><dc:title /></cc:Work></rdf:RDF></metadata><defs
     id="defs12" /><sodipodi:namedview
     pagecolor="#ffffff"
     bordercolor="#666666"
     borderopacity="1"
     objecttolerance="10"
     gridtolerance="10"
     guidetolerance="10"
     inkscape:pageopacity="0"
     inkscape:pageshadow="2"
     inkscape:window-width="1920"
     inkscape:window-height="1017"
     id="namedview10"
     showgrid="false"
     inkscape:zoom="7.375"
     inkscape:cx="-4.4607652"
     inkscape:cy="11.439982"
     inkscape:window-x="-8"
     inkscape:window-y="-8"
     inkscape:window-maximized="1"
     inkscape:current-layer="Layer_1" /><path
     sodipodi:type="star"
     style="opacity:0.9;fill:#aa8800;fill-opacity:1;stroke:#ff8e00;stroke-opacity:0.5780347"
     id="path4136"
     sodipodi:sides="3"
     sodipodi:cx="31.728811"
     sodipodi:cy="19.254236"
     sodipodi:r1="36.339996"
     sodipodi:r2="18.169996"
     sodipodi:arg1="1.5633338"
     sodipodi:arg2="2.6105313"
     inkscape:flatsided="true"
     inkscape:rounded="0"
     inkscape:randomized="0"
     d="M 31.999997,55.593221 0.12273473,1.3195977 63.063702,0.8498903 Z"
     inkscape:transform-center-x="0.016008627"
     inkscape:transform-center-y="10.286635"
     transform="matrix(0.98979631,0.00566248,-0.00650544,1.1371459,0.9899622,-0.69431565)" /><path
     inkscape:connector-curvature="0"
     id="trophy-7-icon"
     d="m 34.534069,34.379624 c 0.87922,-4.977206 7.140564,-8.796324 7.140564,-23.662484 l -17.910012,0 c 0,14.86616 6.261574,18.685278 7.140565,23.662484 l 3.628883,0 z m -5.388452,-16.495517 2.476155,-0.400867 1.090094,-2.635947 1.090398,2.635947 2.475926,0.400867 -1.802307,2.029697 0.439913,2.883819 -2.20393,-1.38184 -2.20416,1.38184 0.440214,-2.883819 -1.802303,-2.029697 z m -5.143063,5.878676 c 0.382861,1.092099 0.797827,2.080753 1.220555,2.985491 -4.748819,-2.336575 -7.580851,-7.905366 -8.036667,-13.78943 l 4.865186,0 c 0.02862,0.667732 0.06881,1.323802 0.123675,1.966535 l -3.01231,0 c 0.504202,2.770485 1.755954,6.460458 4.839561,8.837404 z m 14.23184,17.26731 0,2.093827 -11.029455,0 0,-2.093827 c 2.856373,0 3.609734,-2.809 3.735296,-4.683844 0,0 3.438352,0 3.558936,0 0.125411,1.874844 0.796469,4.683844 3.735223,4.683844 z M 48.237288,12.958844 c -0.455137,5.875582 -3.279785,11.436778 -8.016392,13.779362 0.423101,-0.906508 0.838446,-1.89737 1.22138,-2.991854 3.068308,-2.377477 4.315394,-6.056848 4.818534,-8.820973 l -2.996708,0 c 0.05479,-0.642642 0.09504,-1.298803 0.123601,-1.966535 l 4.849585,0 z"
     style="fill:#f2f2f2" /></svg>